{"glyphs":{"0":{"ha":946,"x_min":75,"x_max":871,"o":"m 664 760 q 601 772 658 772 q 394 754 529 772 q 353 750 393 754 q 291 741 313 746 q 269 731 269 736 q 234 633 269 725 q 186 513 199 540 q 176 485 176 490 q 147 407 176 478 l 118 332 l 171 233 q 211 156 188 201 q 238 106 235 110 q 273 73 250 79 q 421 56 296 67 l 547 43 l 596 71 q 710 131 651 101 q 779 175 774 164 q 807 258 785 185 l 831 331 l 814 407 q 735 617 800 483 q 664 760 674 747 m 401 793 q 494 803 449 797 q 568 811 539 808 q 639 817 597 814 l 682 818 l 757 663 q 853 426 836 499 q 871 336 871 346 q 842 237 871 325 q 807 142 813 149 q 765 114 800 133 q 714 87 758 110 q 642 50 669 64 l 553 3 l 496 8 q 360 22 475 11 q 325 25 347 24 q 232 46 250 32 q 189 111 218 57 l 174 140 q 97 288 133 217 l 75 331 l 113 429 q 153 529 132 478 q 189 622 174 581 q 228 728 204 663 q 257 772 242 764 q 401 793 274 781 m 564 375 q 516 449 564 381 q 463 517 468 517 q 425 493 460 517 q 393 457 393 472 q 394 440 393 447 q 414 344 399 410 q 433 272 429 278 q 436 271 435 271 q 533 344 447 271 q 564 375 564 367 m 346 483 q 405 526 347 492 q 472 560 463 560 q 526 501 485 560 q 592 411 568 443 q 614 368 614 382 q 582 333 611 356 q 492 260 563 319 q 418 210 432 210 q 403 224 408 210 q 378 331 399 239 q 351 436 369 369 q 344 476 344 461 q 346 483 344 482 z "},"1":{"ha":628,"x_min":76,"x_max":560,"o":"m 515 353 q 518 622 518 592 l 518 650 q 326 612 515 653 q 132 567 136 571 q 131 564 131 565 q 160 471 131 551 l 194 381 l 236 421 q 285 457 272 457 l 288 457 q 297 439 297 453 q 288 367 297 421 q 242 101 285 353 q 235 57 235 67 q 333 53 235 53 l 374 53 l 511 56 l 515 353 m 500 689 q 536 694 533 694 q 556 683 549 694 q 560 626 560 678 q 557 546 560 604 q 550 222 550 375 q 539 15 549 22 q 454 10 532 10 q 285 15 372 10 q 194 28 197 21 l 194 31 q 193 35 193 32 q 232 276 193 58 q 242 353 242 332 q 240 364 242 364 q 221 346 238 364 q 189 324 200 324 q 151 381 172 324 q 85 554 92 543 q 76 576 76 567 q 97 599 76 590 q 171 619 118 608 q 500 689 225 629 z "},"2":{"ha":851,"x_min":78,"x_max":775,"o":"m 490 694 q 476 703 479 703 q 375 681 474 701 q 289 663 350 675 q 207 646 228 650 q 133 628 133 631 q 188 520 133 617 q 247 424 242 424 q 335 471 253 424 q 432 517 414 517 q 471 463 446 517 q 496 392 496 407 q 351 244 496 374 q 249 211 335 228 l 221 204 l 218 132 l 217 58 l 243 63 q 394 78 258 64 l 519 88 l 597 49 q 679 13 667 13 l 681 13 q 688 95 683 15 q 693 214 693 175 q 692 226 693 219 l 692 229 l 683 229 q 590 224 647 229 q 493 217 524 217 q 479 218 481 217 q 468 229 468 222 q 503 276 468 242 q 644 410 538 311 q 718 485 718 476 q 704 504 718 494 q 656 546 692 513 q 561 632 583 613 q 490 694 494 690 m 403 728 q 485 744 474 744 q 629 625 500 744 q 653 603 638 617 q 688 571 668 589 q 719 543 708 553 q 775 483 775 493 q 661 369 775 476 q 549 263 549 265 l 557 263 q 632 265 568 263 q 693 267 654 267 q 726 265 724 267 q 736 229 736 260 q 735 186 736 204 q 711 -43 726 -28 q 704 -47 707 -47 q 554 26 693 -47 l 515 47 l 407 38 q 240 25 299 28 l 181 21 l 182 128 l 185 235 l 253 250 q 328 276 321 268 q 361 306 329 278 q 423 364 393 335 q 453 397 453 393 q 438 439 453 406 l 422 472 l 383 451 q 334 424 371 444 q 293 401 297 404 q 235 374 243 374 q 156 497 226 374 q 78 644 78 632 q 81 653 78 647 q 207 686 85 661 q 309 708 238 693 q 403 728 381 724 z "},"3":{"ha":663,"x_min":75,"x_max":589,"o":"m 317 628 q 272 631 297 629 q 222 633 247 632 q 190 635 197 635 q 167 636 182 636 q 143 629 143 636 q 161 558 143 610 l 186 492 l 281 490 q 360 486 342 489 q 378 474 378 483 q 356 420 378 458 q 325 378 335 382 l 321 378 q 249 388 304 378 q 183 399 188 399 l 182 399 l 176 360 l 172 322 l 193 326 q 206 328 196 328 q 289 314 229 328 q 376 294 369 294 q 392 286 385 294 q 399 268 399 278 q 397 260 399 263 q 372 202 389 233 q 349 168 356 171 l 347 167 q 343 167 344 167 q 285 179 328 167 q 182 194 235 194 l 133 194 l 125 154 q 118 110 118 119 q 154 63 118 89 l 192 35 l 338 43 q 492 54 490 54 q 521 124 496 56 q 546 206 546 193 q 488 256 546 211 q 414 307 429 301 q 400 342 390 318 q 449 353 406 353 l 453 353 q 508 367 497 353 q 539 469 518 382 q 543 507 547 506 q 469 567 535 515 l 400 622 l 317 628 m 139 674 q 303 668 193 674 l 414 664 l 501 593 q 589 515 589 524 q 566 412 589 497 q 538 322 543 326 q 501 317 526 317 l 474 317 l 531 274 q 589 217 589 231 q 559 114 589 203 q 522 21 529 25 q 447 13 518 18 q 374 8 433 11 q 283 1 314 4 q 213 -3 236 -3 q 169 5 185 -3 q 114 40 153 13 q 83 67 90 57 q 75 93 75 76 q 86 167 75 108 l 99 226 l 174 229 l 197 229 q 286 219 253 229 q 321 211 311 211 q 344 238 335 211 q 349 253 349 247 q 274 278 349 261 q 213 289 225 289 q 169 281 197 289 q 142 275 147 275 q 126 297 126 275 q 135 361 126 317 l 149 435 l 174 436 l 182 436 q 251 428 214 436 q 300 419 292 419 q 315 428 308 419 q 325 447 325 440 q 247 453 325 453 q 161 458 172 453 q 121 553 151 464 q 90 661 90 642 q 139 674 90 674 z "},"4":{"ha":739,"x_min":71,"x_max":664,"o":"m 331 417 q 374 421 374 417 q 345 482 374 425 q 313 539 317 539 q 304 515 308 539 q 297 463 300 490 q 292 429 293 435 q 290 424 290 428 q 331 417 290 417 m 543 610 q 544 624 544 615 q 539 638 544 632 q 513 654 533 643 l 478 674 l 418 615 q 360 549 360 557 q 396 472 360 544 q 428 400 428 410 q 424 392 428 396 q 333 378 414 382 q 272 374 288 374 q 249 383 253 374 l 247 386 q 247 393 247 390 q 258 485 247 422 q 272 586 272 571 q 263 614 272 607 q 218 629 253 621 q 208 632 213 631 l 142 651 l 136 600 q 113 338 118 438 l 108 268 l 182 246 q 271 217 263 221 q 306 204 286 208 q 335 176 335 194 q 322 131 335 161 q 304 82 304 86 q 393 74 304 79 q 510 68 482 68 l 515 68 q 492 125 517 69 q 471 185 471 168 q 493 200 471 200 q 515 199 507 200 q 574 188 561 193 q 607 181 594 181 q 622 188 622 181 q 618 210 622 190 q 613 243 614 229 q 604 289 608 278 q 590 300 600 300 q 571 296 583 300 q 515 288 538 288 q 481 307 481 288 q 493 390 481 331 q 522 519 506 449 q 543 610 539 589 m 389 642 q 474 717 461 717 q 538 683 489 715 q 588 639 588 651 q 575 564 588 621 q 525 335 525 339 q 540 333 525 333 q 581 335 564 333 l 636 340 l 646 294 q 664 157 664 181 q 663 147 664 149 q 642 139 658 139 q 586 146 631 139 q 544 151 547 151 q 531 142 531 151 q 542 111 531 136 q 565 46 565 60 q 556 32 565 36 q 525 29 547 29 q 367 38 465 29 q 263 53 269 46 q 258 64 258 57 q 272 114 258 74 q 288 168 288 163 q 190 201 288 172 q 86 231 93 231 q 71 240 75 231 l 71 249 q 82 457 71 293 q 99 658 93 621 q 114 693 104 688 l 118 693 q 224 669 140 693 q 317 635 307 644 q 319 625 319 632 q 317 604 319 618 q 313 580 315 590 q 313 569 311 569 q 389 642 319 569 z "},"5":{"ha":650,"x_min":74,"x_max":576,"o":"m 394 678 q 238 693 276 690 l 197 697 l 189 660 q 174 577 182 625 q 158 486 167 529 l 144 410 l 168 389 q 210 361 194 367 q 290 344 225 356 q 397 324 376 329 q 417 306 417 318 q 397 249 417 293 q 369 200 378 206 q 364 199 367 199 q 296 207 354 199 q 231 222 250 214 q 182 250 211 229 q 136 275 147 275 q 131 272 133 275 q 118 126 118 250 q 121 96 118 99 q 192 81 129 90 q 328 58 307 63 l 399 44 l 464 78 q 535 115 531 111 q 536 149 536 117 q 532 303 536 210 q 524 399 528 396 l 518 399 q 403 392 493 399 q 314 386 322 386 q 273 397 279 386 q 267 450 267 408 q 276 501 267 494 q 304 506 281 506 q 382 501 331 506 q 450 499 408 499 q 482 501 481 499 q 500 561 489 508 q 511 638 511 614 l 511 665 l 394 678 m 169 731 q 190 738 175 738 q 217 736 206 738 q 364 720 238 733 q 514 704 490 707 l 550 700 l 549 667 q 522 485 543 549 q 516 467 518 471 q 506 459 514 463 q 481 456 497 456 q 388 461 479 456 l 310 468 l 310 422 l 358 426 q 519 438 483 438 q 563 429 561 438 q 572 254 567 419 l 576 90 q 494 48 549 76 q 411 6 439 19 l 333 18 q 167 44 217 38 q 122 51 144 47 q 89 56 100 54 l 76 58 q 74 82 74 58 q 82 201 74 129 q 99 319 96 304 q 111 336 101 335 l 113 336 q 181 299 125 336 q 249 258 225 268 q 317 242 272 247 q 336 240 325 240 q 358 260 351 240 q 365 281 365 276 q 338 297 365 292 q 213 322 249 311 q 151 351 176 332 q 104 413 104 388 q 108 435 104 422 q 128 531 114 454 q 169 731 156 715 z "},"6":{"ha":735,"x_min":75,"x_max":661,"o":"m 478 407 q 382 415 403 415 q 360 406 360 415 q 415 396 360 396 l 458 396 l 557 397 l 478 407 m 506 640 q 489 658 501 658 q 396 632 475 658 q 311 594 329 610 q 199 475 293 579 l 147 419 l 139 351 q 126 273 133 315 q 114 199 118 231 l 110 163 q 185 85 135 138 q 263 7 236 32 l 346 19 q 575 67 515 44 l 618 82 l 618 360 q 473 361 569 361 q 329 363 376 361 l 319 404 q 313 446 313 432 q 314 453 313 451 q 349 458 318 458 q 421 453 383 458 q 469 447 435 450 l 506 443 q 535 440 533 440 q 546 447 546 440 q 544 454 546 451 q 506 640 510 621 m 397 674 q 515 710 508 710 l 517 710 q 553 607 532 710 l 578 482 q 588 417 588 436 q 586 411 588 414 l 586 408 q 588 398 585 400 q 608 396 592 396 l 613 396 q 655 376 649 396 q 661 244 661 356 l 661 219 l 661 60 l 642 50 q 458 -1 597 28 q 261 -29 319 -29 q 240 -26 246 -29 q 151 64 231 -21 q 89 135 103 115 q 75 182 75 154 q 85 263 75 197 q 103 382 100 364 l 111 438 q 201 538 142 471 q 289 638 260 604 l 397 674 m 396 275 q 333 286 346 286 q 321 275 325 286 q 282 165 282 169 q 330 153 282 161 q 389 144 378 144 q 408 156 400 144 q 433 203 417 167 q 458 263 458 258 l 450 264 q 426 269 443 267 q 396 275 410 272 m 264 238 q 294 314 286 297 q 313 331 303 331 l 314 331 q 424 310 342 331 q 506 282 506 290 q 471 190 506 268 q 428 107 436 113 q 415 106 426 106 q 315 116 383 106 q 239 132 246 126 q 235 143 235 136 q 264 238 235 158 z "},"7":{"ha":706,"x_min":75,"x_max":628,"o":"m 299 678 l 194 689 q 156 581 192 689 q 121 464 121 472 l 126 464 q 181 467 133 464 q 313 481 189 468 q 386 486 371 486 q 397 485 396 486 q 404 471 404 482 q 349 319 404 444 q 322 254 343 308 q 296 192 300 200 q 243 53 243 72 q 249 46 243 46 q 254 47 251 46 q 328 56 274 51 l 390 60 l 415 126 q 447 206 433 169 q 469 267 460 242 q 490 323 479 292 q 506 368 501 354 q 522 417 511 382 q 535 464 532 453 q 553 523 539 475 q 572 589 567 571 q 585 640 585 629 l 583 643 q 299 678 576 650 m 161 713 q 165 720 164 718 q 169 725 167 722 q 177 728 172 728 q 190 729 182 729 q 339 714 206 729 q 467 700 378 708 q 628 669 628 686 q 583 485 628 643 q 511 267 538 328 q 468 149 508 261 q 419 33 431 44 q 321 15 411 25 q 210 6 214 6 q 186 21 186 6 q 202 76 186 33 q 253 199 218 118 q 289 281 288 279 q 310 332 293 293 q 341 403 328 371 q 354 442 354 435 q 350 443 354 443 q 111 421 324 443 q 94 419 104 419 q 75 438 75 419 q 110 565 75 454 q 161 713 147 685 z "},"8":{"ha":706,"x_min":75,"x_max":633,"o":"m 451 621 q 390 640 406 640 q 321 622 378 640 q 258 595 278 607 q 204 550 239 583 l 153 501 l 196 419 q 240 322 240 338 q 201 292 240 308 q 163 270 174 279 q 140 233 153 261 q 125 182 125 200 q 151 117 125 157 q 193 70 171 85 q 267 42 215 56 q 344 26 321 26 q 388 31 361 26 q 488 50 450 39 l 532 61 l 561 118 q 590 182 590 179 q 553 235 590 189 q 483 336 483 314 q 488 350 483 347 q 510 353 492 353 l 538 353 l 564 433 q 590 519 590 508 q 565 556 590 531 q 518 592 539 582 q 484 606 508 596 q 451 621 460 617 m 311 660 q 392 682 375 682 q 513 638 414 682 q 574 604 557 617 q 607 569 590 592 q 633 525 633 532 q 601 419 633 508 q 560 318 569 329 l 546 303 l 590 253 q 633 188 633 206 q 597 101 633 171 l 560 32 l 517 17 q 396 -7 482 4 q 336 -11 354 -11 q 244 7 308 -11 q 157 42 168 29 q 89 157 107 103 l 75 197 l 106 251 q 163 318 136 306 q 189 339 189 331 q 149 424 189 346 q 115 503 115 490 q 116 510 115 507 q 119 517 117 514 q 122 524 121 521 q 128 531 124 526 q 135 540 132 536 q 143 549 138 543 q 153 558 149 554 q 165 570 157 563 q 179 583 174 578 q 236 628 217 617 q 311 660 256 640 m 378 501 q 325 515 333 515 q 313 506 314 515 q 311 465 311 497 l 311 411 l 346 403 q 369 397 356 401 q 386 393 382 393 q 413 435 400 393 q 419 456 415 443 q 424 474 422 468 q 426 482 426 481 q 378 501 426 486 m 285 558 q 296 567 292 567 q 332 557 303 567 q 354 550 338 556 q 388 540 371 544 q 417 531 404 535 q 447 521 439 524 q 462 511 456 518 q 468 494 468 504 q 450 422 468 481 q 419 353 429 360 q 404 349 414 349 q 354 360 392 349 q 276 388 286 378 q 268 419 268 399 q 271 469 268 425 q 285 558 275 546 m 410 203 q 339 224 389 208 q 306 232 317 232 q 294 222 297 232 q 288 181 290 211 q 286 165 286 171 l 281 117 l 432 117 l 436 138 q 440 171 440 161 q 434 191 440 185 q 410 203 428 197 m 269 275 q 290 276 281 281 q 475 221 467 229 q 481 190 481 217 q 476 129 481 164 q 467 89 471 94 q 399 82 461 82 l 351 82 l 243 83 l 242 107 l 242 118 q 252 210 242 151 q 269 275 263 269 z "},"9":{"ha":739,"x_min":75,"x_max":667,"o":"m 257 314 q 294 297 257 314 q 336 281 331 281 q 380 298 342 281 q 435 315 418 315 q 451 300 451 315 q 416 233 451 286 q 371 181 381 181 l 283 194 q 190 207 197 207 q 202 174 188 207 q 233 108 217 142 q 251 71 249 74 q 258 69 253 69 q 321 83 276 69 q 482 132 397 106 q 582 163 567 158 l 622 175 l 626 261 q 631 392 631 333 q 613 506 631 428 q 586 593 596 583 q 476 638 571 604 q 429 654 456 644 q 390 669 403 664 q 374 674 376 674 q 283 658 369 674 l 197 644 l 157 582 q 115 511 115 517 q 134 440 115 501 q 158 367 153 378 q 181 349 165 354 q 257 314 183 347 m 171 675 q 269 695 174 678 q 383 713 364 713 l 388 713 q 530 661 443 694 q 621 622 617 628 q 649 533 629 611 q 667 369 667 460 l 667 310 q 663 156 667 164 q 585 124 657 146 q 451 83 538 108 q 381 61 388 65 q 238 22 260 22 q 213 54 226 22 q 192 98 208 63 q 168 151 176 133 q 138 235 138 217 q 144 249 138 244 l 147 250 q 151 250 150 250 q 256 238 171 250 q 347 226 322 226 q 369 236 360 226 q 376 250 379 249 q 354 243 372 250 q 338 239 346 239 q 294 254 329 239 q 147 319 183 307 q 124 340 131 325 q 94 435 114 363 q 75 525 75 508 q 118 598 75 532 q 171 675 161 664 m 435 464 q 329 485 435 474 q 294 488 296 488 q 283 485 285 488 q 281 474 281 482 q 292 435 281 454 q 319 409 300 415 q 388 403 339 403 q 418 406 413 403 q 426 428 424 410 q 430 442 428 433 q 433 456 432 450 q 435 464 435 461 m 242 526 q 268 531 246 531 q 372 520 289 531 q 465 506 456 510 q 474 476 474 503 q 464 403 474 454 l 456 363 l 417 364 l 381 367 q 328 369 344 368 q 283 378 292 374 q 263 404 275 382 q 239 510 239 449 q 242 526 239 524 z "},"\u0000":{"ha":347,"x_min":0,"x_max":0,"o":""},"\r":{"ha":347,"x_min":0,"x_max":0,"o":""}," ":{"ha":347,"x_min":0,"x_max":0,"o":""},"!":{"ha":468,"x_min":78,"x_max":399,"o":"m 308 849 q 235 861 253 861 q 168 830 218 860 q 118 790 118 800 q 135 707 118 776 q 176 539 171 565 l 199 443 l 253 449 q 326 457 318 454 l 344 461 l 350 554 q 354 649 351 581 q 358 743 357 717 l 364 836 l 308 849 m 151 868 q 226 900 203 900 l 236 900 q 331 884 272 897 q 394 865 389 871 q 399 797 399 861 q 392 570 399 703 q 379 432 385 438 q 296 415 374 426 q 189 403 218 403 q 164 422 172 403 q 136 528 156 442 q 119 603 132 544 q 100 685 106 663 q 78 803 78 774 q 85 824 78 818 q 151 868 90 829 m 342 292 q 333 316 338 313 q 304 321 328 319 l 290 321 q 203 307 214 321 q 182 250 194 292 q 169 189 169 208 q 172 161 169 181 q 183 124 178 132 q 213 107 188 117 q 246 97 236 97 q 269 104 253 97 q 326 125 293 115 q 353 136 347 131 q 363 163 358 142 q 364 182 364 168 q 360 219 364 199 q 349 260 356 239 q 342 292 343 282 m 268 356 q 310 360 285 360 q 360 351 353 360 q 371 319 365 344 q 374 304 372 317 q 380 279 376 292 q 386 256 383 267 q 397 158 397 211 q 392 118 397 125 q 322 86 388 110 q 242 68 269 68 q 179 85 217 68 q 153 103 158 94 q 140 147 147 113 q 135 189 135 174 q 154 271 135 207 l 178 344 l 218 349 q 268 356 263 354 z "},"\"":{"ha":924,"x_min":75,"x_max":846,"o":"m 704 928 q 621 946 635 946 q 613 944 619 946 q 592 941 606 943 q 569 938 579 939 l 524 931 l 528 897 q 564 747 543 779 q 582 701 582 719 q 561 642 582 681 q 547 604 547 615 q 583 585 547 593 q 599 583 589 583 q 665 599 624 583 q 731 628 721 618 q 757 700 735 632 q 788 792 772 750 q 797 843 797 815 q 790 888 797 864 q 772 908 785 903 q 704 928 760 914 m 561 975 q 613 981 579 981 q 669 975 647 981 q 815 938 811 942 l 817 931 q 824 913 819 925 q 831 890 828 900 l 846 844 l 822 772 q 786 660 804 711 q 765 606 771 614 q 690 567 757 593 q 599 540 622 540 l 594 540 q 471 592 471 571 q 490 619 471 603 q 532 674 517 643 l 547 704 l 529 731 q 504 797 513 753 q 486 892 494 846 q 481 938 481 918 q 489 961 481 956 q 518 968 497 967 q 561 975 547 971 m 322 919 q 233 939 239 939 l 232 939 q 196 935 228 938 q 151 928 161 932 q 140 911 140 924 q 142 894 140 901 q 178 739 160 765 q 196 700 196 713 q 178 650 196 686 q 149 607 160 614 q 142 598 140 600 q 154 589 143 596 q 207 579 171 579 q 290 596 238 579 q 347 625 342 613 q 386 733 353 632 q 414 839 414 817 q 411 865 414 856 l 403 900 l 322 919 m 156 968 q 232 974 219 974 q 340 957 269 974 q 426 932 415 939 q 449 879 436 928 l 460 832 l 421 715 q 376 592 385 604 q 298 558 372 585 q 210 531 224 531 q 136 553 196 531 q 75 590 75 575 q 103 621 75 600 q 143 669 131 640 q 151 694 151 686 q 136 731 151 700 q 111 822 124 754 q 99 931 99 890 q 103 956 99 951 q 156 968 110 963 z "},"“":{"ha":924,"x_min":75,"x_max":846,"o":"m 704 928 q 621 946 635 946 q 613 944 619 946 q 592 941 606 943 q 569 938 579 939 l 524 931 l 528 897 q 564 747 543 779 q 582 701 582 719 q 561 642 582 681 q 547 604 547 615 q 583 585 547 593 q 599 583 589 583 q 665 599 624 583 q 731 628 721 618 q 757 700 735 632 q 788 792 772 750 q 797 843 797 815 q 790 888 797 864 q 772 908 785 903 q 704 928 760 914 m 561 975 q 613 981 579 981 q 669 975 647 981 q 815 938 811 942 l 817 931 q 824 913 819 925 q 831 890 828 900 l 846 844 l 822 772 q 786 660 804 711 q 765 606 771 614 q 690 567 757 593 q 599 540 622 540 l 594 540 q 471 592 471 571 q 490 619 471 603 q 532 674 517 643 l 547 704 l 529 731 q 504 797 513 753 q 486 892 494 846 q 481 938 481 918 q 489 961 481 956 q 518 968 497 967 q 561 975 547 971 m 322 919 q 233 939 239 939 l 232 939 q 196 935 228 938 q 151 928 161 932 q 140 911 140 924 q 142 894 140 901 q 178 739 160 765 q 196 700 196 713 q 178 650 196 686 q 149 607 160 614 q 142 598 140 600 q 154 589 143 596 q 207 579 171 579 q 290 596 238 579 q 347 625 342 613 q 386 733 353 632 q 414 839 414 817 q 411 865 414 856 l 403 900 l 322 919 m 156 968 q 232 974 219 974 q 340 957 269 974 q 426 932 415 939 q 449 879 436 928 l 460 832 l 421 715 q 376 592 385 604 q 298 558 372 585 q 210 531 224 531 q 136 553 196 531 q 75 590 75 575 q 103 621 75 600 q 143 669 131 640 q 151 694 151 686 q 136 731 151 700 q 111 822 124 754 q 99 931 99 890 q 103 956 99 951 q 156 968 110 963 z "},"”":{"ha":924,"x_min":75,"x_max":846,"o":"m 704 928 q 621 946 635 946 q 613 944 619 946 q 592 941 606 943 q 569 938 579 939 l 524 931 l 528 897 q 564 747 543 779 q 582 701 582 719 q 561 642 582 681 q 547 604 547 615 q 583 585 547 593 q 599 583 589 583 q 665 599 624 583 q 731 628 721 618 q 757 700 735 632 q 788 792 772 750 q 797 843 797 815 q 790 888 797 864 q 772 908 785 903 q 704 928 760 914 m 561 975 q 613 981 579 981 q 669 975 647 981 q 815 938 811 942 l 817 931 q 824 913 819 925 q 831 890 828 900 l 846 844 l 822 772 q 786 660 804 711 q 765 606 771 614 q 690 567 757 593 q 599 540 622 540 l 594 540 q 471 592 471 571 q 490 619 471 603 q 532 674 517 643 l 547 704 l 529 731 q 504 797 513 753 q 486 892 494 846 q 481 938 481 918 q 489 961 481 956 q 518 968 497 967 q 561 975 547 971 m 322 919 q 233 939 239 939 l 232 939 q 196 935 228 938 q 151 928 161 932 q 140 911 140 924 q 142 894 140 901 q 178 739 160 765 q 196 700 196 713 q 178 650 196 686 q 149 607 160 614 q 142 598 140 600 q 154 589 143 596 q 207 579 171 579 q 290 596 238 579 q 347 625 342 613 q 386 733 353 632 q 414 839 414 817 q 411 865 414 856 l 403 900 l 322 919 m 156 968 q 232 974 219 974 q 340 957 269 974 q 426 932 415 939 q 449 879 436 928 l 460 832 l 421 715 q 376 592 385 604 q 298 558 372 585 q 210 531 224 531 q 136 553 196 531 q 75 590 75 575 q 103 621 75 600 q 143 669 131 640 q 151 694 151 686 q 136 731 151 700 q 111 822 124 754 q 99 931 99 890 q 103 956 99 951 q 156 968 110 963 z "},"„":{"ha":924,"x_min":75,"x_max":846,"o":"m 704 928 q 621 946 635 946 q 613 944 619 946 q 592 941 606 943 q 569 938 579 939 l 524 931 l 528 897 q 564 747 543 779 q 582 701 582 719 q 561 642 582 681 q 547 604 547 615 q 583 585 547 593 q 599 583 589 583 q 665 599 624 583 q 731 628 721 618 q 757 700 735 632 q 788 792 772 750 q 797 843 797 815 q 790 888 797 864 q 772 908 785 903 q 704 928 760 914 m 561 975 q 613 981 579 981 q 669 975 647 981 q 815 938 811 942 l 817 931 q 824 913 819 925 q 831 890 828 900 l 846 844 l 822 772 q 786 660 804 711 q 765 606 771 614 q 690 567 757 593 q 599 540 622 540 l 594 540 q 471 592 471 571 q 490 619 471 603 q 532 674 517 643 l 547 704 l 529 731 q 504 797 513 753 q 486 892 494 846 q 481 938 481 918 q 489 961 481 956 q 518 968 497 967 q 561 975 547 971 m 322 919 q 233 939 239 939 l 232 939 q 196 935 228 938 q 151 928 161 932 q 140 911 140 924 q 142 894 140 901 q 178 739 160 765 q 196 700 196 713 q 178 650 196 686 q 149 607 160 614 q 142 598 140 600 q 154 589 143 596 q 207 579 171 579 q 290 596 238 579 q 347 625 342 613 q 386 733 353 632 q 414 839 414 817 q 411 865 414 856 l 403 900 l 322 919 m 156 968 q 232 974 219 974 q 340 957 269 974 q 426 932 415 939 q 449 879 436 928 l 460 832 l 421 715 q 376 592 385 604 q 298 558 372 585 q 210 531 224 531 q 136 553 196 531 q 75 590 75 575 q 103 621 75 600 q 143 669 131 640 q 151 694 151 686 q 136 731 151 700 q 111 822 124 754 q 99 931 99 890 q 103 956 99 951 q 156 968 110 963 z "},"$":{"ha":704,"x_min":74,"x_max":628,"o":"m 450 869 l 444 918 l 415 918 q 374 910 381 918 q 365 861 368 901 l 364 815 l 314 801 q 239 760 239 782 q 199 690 239 757 l 160 626 l 160 461 l 206 439 q 251 418 219 432 q 289 401 282 404 q 324 380 315 390 q 350 332 332 369 q 372 265 372 282 q 360 251 372 253 q 285 246 347 249 l 254 246 q 160 260 194 246 q 131 269 143 267 q 119 269 119 272 q 136 182 119 258 q 156 103 153 106 l 226 97 l 297 92 q 294 41 297 75 q 292 -10 292 7 l 354 -11 l 415 -14 l 426 25 q 446 97 444 93 q 462 132 453 121 q 508 168 471 143 l 563 203 l 557 244 q 544 336 547 321 l 536 386 l 478 419 q 388 486 436 442 q 339 544 339 531 q 366 609 339 556 q 400 665 393 663 l 404 665 q 496 649 425 665 q 582 633 560 633 l 586 633 q 588 647 588 633 q 585 703 588 658 l 579 768 l 554 779 q 493 799 544 783 q 473 805 478 803 q 462 809 468 807 q 455 817 456 811 q 453 826 454 822 q 451 844 451 831 q 450 869 451 858 m 410 969 q 461 974 451 974 l 486 975 l 494 929 q 503 863 503 892 q 509 842 503 847 q 542 826 515 836 q 594 807 561 818 q 614 784 610 801 q 624 685 618 767 q 628 621 628 643 q 610 583 628 583 q 589 588 601 583 q 568 593 583 589 q 531 602 553 597 q 494 611 510 607 q 433 622 447 622 q 410 613 417 622 q 393 578 403 604 l 382 546 l 413 515 q 497 454 446 482 q 563 411 549 425 q 585 322 572 401 q 599 201 599 242 q 596 183 599 189 q 540 142 586 171 l 492 110 l 475 32 q 451 -54 457 -47 q 399 -60 447 -60 q 246 -44 264 -60 q 240 -28 240 -39 q 244 1 240 -17 q 251 43 251 33 q 244 56 251 54 q 214 58 238 58 l 193 58 q 126 68 132 58 q 111 117 119 75 q 99 169 110 125 q 81 252 89 213 q 74 307 74 292 q 89 321 74 321 q 151 303 110 321 q 269 281 210 281 q 332 283 332 281 q 311 326 332 293 q 281 364 290 358 q 252 376 276 365 q 214 394 228 388 q 138 434 147 424 q 122 490 128 444 q 118 572 118 525 l 118 589 q 128 642 119 621 q 175 725 138 663 l 229 814 q 318 843 260 824 l 314 901 l 308 960 l 347 964 q 383 967 360 965 q 410 969 407 969 z "},"+":{"ha":694,"x_min":74,"x_max":619,"o":"m 328 714 q 281 719 306 717 q 244 724 257 722 q 229 725 231 725 q 224 717 224 725 q 263 572 224 699 q 272 529 272 539 q 238 507 272 507 q 185 511 218 507 q 119 517 129 517 q 111 515 113 517 q 110 504 110 514 q 113 461 110 494 l 117 411 l 163 407 q 240 394 229 400 q 251 360 251 388 q 244 267 251 322 q 239 208 239 211 q 246 206 239 206 q 348 210 282 206 q 414 222 414 215 q 406 305 414 233 q 399 390 399 376 q 413 401 399 401 q 517 365 442 401 q 544 356 542 353 q 559 431 547 360 q 571 519 571 503 q 560 522 569 524 q 533 515 550 521 q 401 483 435 483 l 397 483 q 389 497 389 486 q 417 596 389 517 q 444 686 444 676 q 424 701 444 696 q 328 714 403 706 m 172 753 q 178 765 172 763 q 204 768 185 768 q 299 757 229 768 q 417 743 344 750 q 481 734 468 739 q 494 717 494 729 q 467 619 494 703 q 442 535 442 544 q 444 533 442 533 q 561 564 461 533 q 603 574 596 574 q 619 551 619 574 q 610 483 619 539 q 596 414 604 460 q 586 363 588 368 q 581 337 582 344 q 576 323 579 329 q 571 315 574 317 q 563 314 568 314 l 556 314 q 490 333 535 317 l 444 351 l 444 325 q 453 244 444 303 q 456 207 456 228 q 450 183 456 189 q 376 173 444 178 q 250 168 308 168 q 199 172 200 168 q 197 190 197 175 q 204 283 197 218 q 211 350 211 349 q 201 361 211 358 q 153 368 192 364 q 83 382 92 374 q 74 443 74 390 l 74 469 l 76 549 l 228 549 l 224 567 q 172 753 172 739 z "},",":{"ha":535,"x_min":75,"x_max":460,"o":"m 399 360 q 324 382 396 363 q 239 401 251 401 l 238 401 q 200 397 233 400 q 151 390 161 394 q 140 374 140 386 q 142 357 140 364 q 178 201 160 228 q 196 164 196 175 q 178 113 196 150 q 149 69 160 76 q 142 60 140 63 q 154 51 143 58 q 207 42 171 42 q 290 58 238 42 q 347 88 342 75 q 386 196 353 94 q 414 303 414 279 q 411 325 414 311 q 399 360 403 357 m 156 432 q 226 436 200 436 q 339 419 264 436 q 426 394 414 401 q 449 342 436 390 l 460 296 l 422 182 q 379 58 385 69 q 301 22 376 50 q 208 -6 226 -6 q 136 17 196 -6 q 75 54 75 39 q 103 85 75 64 q 135 117 118 96 q 151 157 151 139 q 146 175 151 168 q 122 228 129 203 q 106 318 114 254 q 97 396 97 376 q 103 419 97 414 q 156 432 110 426 z "},"-":{"ha":690,"x_min":72,"x_max":617,"o":"m 547 515 q 539 531 542 531 q 451 492 529 531 l 369 451 l 331 464 q 284 481 304 472 q 247 496 264 490 q 213 511 217 507 q 196 517 207 517 q 135 472 188 517 l 113 454 l 125 394 q 160 233 156 238 l 161 233 l 358 293 l 360 293 q 429 271 375 293 l 488 246 l 518 286 q 572 358 556 338 q 581 379 581 371 q 568 438 581 389 q 555 485 563 457 q 547 515 547 514 m 361 496 q 456 538 365 496 q 556 579 546 579 q 583 531 571 579 q 597 485 588 517 q 612 431 607 454 q 617 383 617 408 q 608 344 617 361 q 561 275 599 326 q 554 265 558 272 q 501 207 517 213 l 492 206 q 422 231 479 206 l 368 254 l 304 235 q 203 201 269 224 q 147 188 161 188 q 126 200 131 188 q 95 338 118 228 q 72 460 72 447 q 90 492 72 479 q 157 543 115 508 q 185 560 176 560 q 243 540 190 560 q 328 506 296 521 q 361 496 350 496 z "},".":{"ha":464,"x_min":72,"x_max":392,"o":"m 335 372 l 318 438 l 283 436 q 247 435 278 436 q 204 432 217 433 l 163 428 l 138 354 q 119 276 119 299 q 125 238 119 260 q 128 223 126 231 q 131 211 131 215 q 133 202 131 207 q 135 196 135 197 q 138 192 135 194 q 141 188 140 189 q 147 186 142 188 q 156 184 153 185 q 167 182 158 183 q 182 179 175 181 q 215 175 203 175 q 286 192 236 175 l 351 213 l 351 260 q 335 372 351 300 m 217 474 q 321 479 290 479 q 351 465 346 479 q 376 371 353 461 q 392 272 392 306 q 390 242 392 253 q 381 186 385 190 q 301 155 374 179 q 214 131 228 131 q 151 146 200 131 l 103 161 q 88 223 99 182 q 72 283 78 264 l 101 369 q 136 463 132 457 q 217 474 142 468 z "},"/":{"ha":600,"x_min":79,"x_max":521,"o":"m 472 863 q 398 891 471 864 q 324 918 325 918 q 317 894 322 918 q 266 666 311 867 q 201 374 221 465 q 133 71 139 89 q 128 46 128 56 q 133 38 128 38 q 174 58 142 38 q 210 81 203 81 q 241 101 219 81 q 265 132 263 121 q 342 402 283 204 q 419 667 401 600 q 456 785 428 699 q 472 863 476 858 m 289 953 q 310 960 292 960 q 365 947 353 960 q 406 931 369 943 q 446 918 443 919 q 467 908 447 917 q 504 892 488 900 q 521 878 521 883 q 474 707 521 867 q 449 620 460 663 q 424 535 438 578 q 381 388 410 492 q 293 94 357 301 q 244 54 290 82 q 201 28 235 49 q 153 0 167 8 q 93 -26 110 -26 q 79 -14 79 -26 q 117 174 79 6 q 148 314 132 244 q 174 431 164 383 q 199 542 185 478 q 218 629 207 576 q 238 721 229 682 q 263 835 242 735 q 289 953 285 936 z "},":":{"ha":379,"x_min":71,"x_max":308,"o":"m 257 368 q 251 383 254 379 q 233 386 247 386 l 219 386 q 142 378 154 383 q 118 331 131 372 q 104 267 104 283 q 111 229 104 250 q 135 201 118 201 q 158 194 151 201 q 167 193 160 193 q 258 218 208 193 q 279 265 279 228 q 272 311 279 283 q 266 332 269 319 q 260 353 263 344 q 257 368 258 363 m 263 554 l 250 610 l 203 610 q 144 606 147 607 q 114 547 132 603 q 100 489 100 504 q 106 460 100 485 q 118 431 113 438 q 142 421 124 425 q 163 419 147 419 q 258 443 222 419 q 274 479 274 453 q 263 554 274 508 m 113 631 q 181 638 115 633 q 250 644 247 643 l 253 644 q 289 574 272 644 q 303 469 303 514 q 290 424 303 432 q 281 407 281 418 q 289 360 281 397 q 307 293 300 310 q 308 272 308 290 q 307 242 308 253 l 303 203 l 265 189 q 172 161 192 161 q 135 171 160 161 q 100 188 108 181 q 85 214 92 194 q 74 281 74 244 q 79 311 74 304 q 97 358 83 317 q 106 393 106 386 q 96 410 106 400 q 75 461 83 422 q 71 492 71 481 q 88 563 71 508 q 113 631 108 626 z "},";":{"ha":396,"x_min":72,"x_max":325,"o":"m 233 354 q 175 365 181 365 l 172 365 q 158 363 169 365 q 139 361 146 361 l 115 358 l 119 314 q 139 243 125 269 q 151 207 151 218 q 138 169 151 196 q 124 138 124 142 q 144 126 124 131 q 156 125 147 125 q 208 135 176 125 q 249 154 239 144 q 276 225 257 163 q 294 307 294 288 q 285 336 294 329 q 233 354 275 343 m 272 554 l 256 617 l 231 617 q 183 613 199 615 q 154 608 167 610 q 136 599 142 607 q 128 586 131 590 q 121 563 125 582 q 114 533 117 544 q 107 497 107 513 q 114 464 107 481 q 127 437 121 442 q 156 428 133 432 q 176 426 163 426 q 235 439 197 426 q 274 458 264 449 q 285 486 285 467 q 272 554 285 506 m 140 635 q 246 644 167 639 l 279 646 l 290 613 q 315 492 315 536 l 315 475 l 313 436 l 263 418 q 210 397 214 401 q 208 394 208 396 q 263 375 208 389 l 311 363 l 319 329 q 325 299 325 304 q 304 218 325 281 q 271 133 278 139 q 219 110 261 124 q 154 97 176 97 l 149 97 q 98 113 122 101 q 74 133 74 125 q 90 156 74 146 q 119 204 119 174 q 114 225 119 218 q 96 281 104 239 q 88 353 88 322 q 95 381 88 375 q 131 388 103 388 q 149 393 149 388 q 121 406 149 401 q 99 416 106 408 q 83 450 93 424 q 72 496 72 486 q 90 568 72 510 l 110 631 l 140 635 z "},"=":{"ha":744,"x_min":72,"x_max":672,"o":"m 565 369 l 564 369 q 472 386 557 369 l 388 401 q 254 386 326 386 q 236 388 239 386 q 231 389 235 389 q 176 346 218 389 q 135 294 135 304 q 406 244 135 279 q 544 226 540 228 l 550 226 q 593 263 565 226 q 624 311 624 301 q 599 344 624 319 q 567 369 574 369 l 565 369 m 394 596 q 265 615 297 615 q 192 608 247 615 l 136 601 l 136 528 q 149 450 136 456 q 164 449 150 449 q 279 457 206 449 q 390 465 363 465 q 460 457 418 465 q 556 442 481 453 l 593 438 l 600 488 q 613 547 611 546 l 614 549 l 614 550 q 565 568 614 558 q 510 575 526 575 l 507 575 l 506 575 q 394 596 496 575 m 169 644 q 275 651 236 651 q 340 646 307 651 q 492 619 472 619 l 494 619 l 497 619 q 582 606 519 619 q 651 585 644 592 q 657 569 657 579 q 650 526 657 554 q 631 436 642 493 q 615 396 624 396 l 614 394 q 640 358 614 388 q 672 306 672 322 q 663 288 672 296 q 618 233 650 278 q 585 194 594 200 q 556 188 576 188 q 483 194 522 188 q 347 213 435 203 q 117 257 239 226 q 72 283 72 268 q 118 344 72 299 q 165 400 165 389 q 138 410 165 410 q 100 419 110 410 q 94 492 94 426 q 106 632 94 621 q 169 644 110 636 z "},"?":{"ha":700,"x_min":76,"x_max":621,"o":"m 347 331 l 338 369 l 294 372 l 276 372 q 226 362 239 372 q 200 310 214 351 q 186 253 186 269 q 190 233 186 244 q 199 201 199 208 q 256 181 199 181 q 317 194 303 181 q 343 204 324 200 q 355 208 351 207 q 360 214 358 210 q 363 226 363 218 q 361 250 363 240 q 347 331 354 304 m 376 894 q 271 919 300 919 q 196 904 250 919 q 122 881 126 885 q 119 829 119 878 q 120 794 119 819 q 121 753 121 768 l 124 629 l 186 681 q 263 731 249 731 q 272 683 272 731 q 271 621 272 647 q 266 524 268 543 q 251 489 264 506 q 233 458 233 463 q 293 446 233 456 l 351 436 l 417 504 q 571 676 571 664 q 516 769 571 681 q 450 869 461 857 q 376 894 446 874 m 249 961 q 271 967 268 967 q 332 950 275 967 q 429 919 363 940 q 471 901 460 911 q 508 850 482 892 q 621 669 621 678 q 588 628 621 664 q 523 561 586 626 q 412 444 460 496 q 364 390 364 393 q 376 331 364 383 q 392 226 392 269 q 383 189 392 194 q 317 164 382 188 q 257 149 272 149 q 224 156 249 149 q 182 173 192 164 q 167 206 172 182 q 157 263 157 243 q 165 297 157 281 q 176 331 176 319 q 189 367 176 339 q 204 392 197 386 q 233 400 211 397 l 272 407 q 235 414 272 410 q 193 423 204 418 q 182 439 182 428 q 204 489 182 454 q 230 536 226 522 q 233 597 233 550 q 229 660 233 660 q 174 619 224 660 q 121 572 124 578 q 97 567 118 567 l 76 567 l 76 731 q 83 901 76 892 q 124 922 86 908 q 203 947 161 935 q 249 961 244 960 z "},"@":{"ha":1106,"x_min":74,"x_max":1032,"o":"m 524 535 l 518 586 q 489 572 515 589 l 463 556 q 528 485 500 518 l 524 535 m 628 764 q 563 825 567 825 q 526 797 557 825 l 471 747 l 446 725 l 499 743 q 558 768 550 761 q 575 775 565 775 q 597 763 590 775 q 611 714 603 753 q 622 667 619 675 l 631 649 l 689 703 l 628 764 m 971 785 q 970 785 971 785 q 781 899 969 786 q 583 1011 592 1011 q 478 960 575 1011 q 285 857 433 935 l 188 807 l 179 753 q 125 344 115 354 q 383 204 129 340 l 638 71 l 763 89 q 890 111 889 110 q 892 118 892 111 q 885 172 892 133 q 868 228 878 228 l 865 228 q 760 201 861 226 l 667 179 q 338 335 467 276 l 300 478 q 264 629 264 625 q 368 722 264 636 q 510 842 485 817 q 558 879 546 875 l 561 879 q 661 796 576 879 q 750 699 750 707 q 708 658 750 689 q 650 607 671 628 q 622 589 632 589 q 581 658 590 589 q 578 685 579 678 q 574 701 576 692 q 568 712 572 710 q 558 714 564 714 q 511 700 549 714 l 460 682 l 393 557 l 442 483 q 485 424 471 439 q 510 410 499 410 q 528 415 528 410 q 467 486 528 419 q 406 563 406 553 q 454 603 406 575 q 540 644 526 644 q 550 640 546 644 q 568 540 561 629 q 574 467 574 468 q 567 438 574 447 q 571 417 547 417 q 610 456 583 417 l 636 493 l 708 513 q 767 528 729 518 q 814 539 806 538 l 846 546 l 910 664 q 971 785 972 783 m 567 1061 q 576 1068 571 1068 q 671 1015 583 1068 q 1025 800 1019 810 q 1017 767 1031 789 q 906 564 968 685 l 875 507 l 769 481 q 675 454 692 461 q 646 429 658 447 q 628 396 628 403 q 601 379 628 386 q 536 367 575 372 q 490 361 497 363 q 488 360 489 361 q 485 360 486 360 q 462 376 475 360 q 406 457 449 392 l 339 556 l 353 578 q 413 694 413 679 q 411 697 413 697 q 408 696 410 697 q 313 614 313 628 q 343 486 313 608 l 374 367 q 667 229 568 275 l 710 238 q 759 248 717 239 q 824 263 801 257 l 893 279 l 906 260 q 928 188 917 243 q 939 99 939 133 q 935 76 939 81 q 778 46 924 68 l 631 24 l 351 172 q 117 300 160 275 q 74 338 74 325 q 108 583 74 350 q 144 829 142 817 q 275 901 146 833 q 406 971 404 969 q 486 1015 410 975 q 567 1061 563 1056 z "},"A":{"ha":999,"x_min":76,"x_max":926,"o":"m 682 804 q 656 844 663 844 q 525 814 650 844 q 358 772 400 783 q 311 711 313 761 q 279 592 310 696 q 206 342 249 488 q 153 165 163 197 q 125 72 131 86 q 121 49 118 51 q 238 39 124 46 q 399 28 386 29 q 428 25 424 25 q 443 33 443 25 q 438 50 443 42 q 418 92 432 56 q 410 124 410 114 q 415 136 410 131 q 490 156 422 143 q 618 174 558 168 q 639 175 626 175 q 649 172 647 175 q 651 156 651 168 q 633 86 651 138 q 619 35 619 44 q 707 17 619 31 q 821 3 794 4 q 867 8 847 3 l 883 13 l 879 143 q 872 272 876 239 q 846 381 867 304 q 806 528 813 500 q 682 804 792 572 m 633 879 q 671 888 664 888 q 738 781 689 888 q 794 663 786 679 q 861 471 825 601 q 906 308 885 388 q 921 131 917 274 l 926 -11 l 899 -22 q 825 -32 878 -32 q 672 -18 758 -32 q 575 6 586 -4 q 571 17 571 10 q 586 72 571 24 q 601 128 601 118 q 599 132 601 132 q 522 121 581 131 q 460 108 463 111 q 463 88 456 104 q 486 35 475 63 q 497 3 497 6 q 489 -10 497 -3 q 450 -15 475 -21 q 303 -4 435 -12 q 78 22 83 8 q 76 29 76 25 q 126 211 76 44 q 155 308 139 251 q 172 369 171 364 q 199 456 174 375 q 238 586 224 536 q 251 631 243 604 q 264 676 258 658 q 272 703 269 694 q 281 740 281 728 q 288 776 281 760 q 322 806 299 800 q 633 879 367 814 m 524 500 q 485 519 493 519 q 468 474 474 519 q 460 425 465 450 q 472 390 454 404 q 510 368 500 368 q 536 386 519 368 q 558 443 558 410 q 553 476 558 468 q 524 500 549 485 m 444 549 q 467 571 450 571 q 533 540 478 571 q 594 499 589 508 q 597 471 597 493 q 596 440 597 451 q 589 392 594 404 q 563 358 583 381 q 521 322 531 326 l 518 322 q 458 352 500 322 q 414 394 415 382 q 428 463 414 414 q 442 518 442 513 q 444 549 442 535 z "},"B":{"ha":1019,"x_min":69,"x_max":944,"o":"m 722 764 q 649 826 664 815 q 617 838 633 838 l 611 838 q 372 810 518 835 q 169 783 319 801 l 140 779 l 135 594 q 124 294 129 371 q 117 99 117 188 l 117 17 l 447 17 q 785 28 775 17 q 826 115 796 43 q 883 269 883 256 q 881 275 883 275 q 842 297 869 279 q 753 351 803 324 q 693 404 693 386 q 746 461 693 419 q 795 506 783 490 q 828 571 807 521 l 857 640 l 831 665 q 722 764 826 669 m 476 869 q 590 885 588 882 q 625 888 593 888 q 664 878 649 888 q 731 822 679 868 q 767 788 747 807 q 800 758 788 769 q 815 744 813 747 q 834 728 817 743 q 867 699 851 713 q 895 669 882 685 q 908 646 908 653 q 850 501 908 625 q 801 444 836 469 q 765 408 765 418 q 843 353 765 394 q 944 279 944 296 q 931 238 944 268 q 903 172 913 201 q 821 -17 833 -1 q 444 -28 813 -28 q 71 -17 75 -28 q 69 35 69 -12 q 82 494 69 178 q 101 817 94 811 q 182 829 107 822 q 314 848 226 835 q 476 869 401 861 m 481 643 q 407 656 428 651 q 393 657 401 657 q 383 631 383 657 q 375 561 383 608 q 368 522 368 533 q 369 518 368 518 q 378 517 374 517 q 478 526 404 517 q 556 540 551 536 q 570 572 563 547 q 578 611 578 597 q 566 629 578 625 q 481 643 554 633 m 336 697 l 340 718 l 410 713 q 556 694 499 706 q 629 675 611 683 q 647 650 647 667 q 645 635 647 644 q 640 613 643 626 q 635 589 638 600 q 603 488 619 500 q 528 475 590 481 q 426 460 468 471 q 354 450 393 450 l 347 450 l 307 453 l 304 485 l 304 496 q 325 654 304 574 q 331 678 326 661 q 336 697 336 694 m 560 314 q 560 324 564 321 q 544 326 557 328 q 438 315 503 324 q 367 300 372 306 q 365 296 365 299 q 379 265 365 288 q 408 222 393 243 q 425 199 424 200 q 450 185 433 185 q 486 188 453 185 q 540 194 539 193 q 549 249 544 199 q 560 314 557 307 m 542 374 q 578 375 543 378 l 610 374 l 608 321 q 597 219 607 278 q 578 151 586 160 q 494 142 574 147 q 449 140 475 140 q 402 154 417 140 q 343 233 388 168 q 301 317 301 294 q 318 340 301 332 q 433 360 329 347 q 542 374 540 372 z "},"C":{"ha":1024,"x_min":72,"x_max":949,"o":"m 579 831 q 483 849 503 849 q 472 848 478 849 q 460 847 465 847 q 448 843 456 846 q 435 838 440 840 q 420 831 431 836 q 404 824 410 826 q 385 814 399 821 q 363 803 371 807 q 289 767 321 782 q 238 741 257 751 q 183 713 218 731 q 146 688 153 696 q 138 664 139 681 q 136 633 138 658 q 134 560 135 607 q 132 481 133 514 l 126 321 l 197 208 q 234 150 214 182 q 268 97 254 118 q 285 71 282 76 q 289 64 286 68 q 322 31 306 36 q 494 21 344 22 l 496 21 l 497 21 l 499 21 l 500 21 l 501 21 l 503 21 l 504 21 l 506 21 l 507 21 l 508 21 l 510 21 l 511 21 l 513 21 l 514 21 l 515 21 l 517 21 l 518 21 l 519 21 l 521 21 l 522 21 l 524 21 l 526 21 q 744 22 736 21 q 782 63 763 28 q 798 90 788 72 q 822 131 808 107 q 844 168 836 154 q 885 243 885 236 q 765 304 885 253 q 703 333 710 329 q 685 340 692 340 q 666 326 675 340 q 638 272 657 313 q 592 204 604 204 q 454 289 576 204 q 331 388 331 372 q 468 585 331 407 q 515 629 503 629 q 638 574 526 629 q 750 522 740 522 l 751 522 q 769 633 756 525 q 783 767 783 742 q 772 785 783 779 q 710 801 761 790 q 645 816 693 806 q 579 831 597 826 m 269 813 q 465 901 440 899 q 533 892 489 901 q 586 881 547 889 q 636 869 625 872 q 832 819 822 829 q 835 796 835 817 q 817 605 835 735 q 789 461 800 475 q 775 450 781 450 q 725 471 769 450 q 601 533 663 500 q 524 569 532 569 q 456 485 515 569 q 397 394 397 401 q 480 333 397 389 q 578 278 563 278 q 581 279 581 278 q 607 338 588 288 q 611 347 608 340 q 644 404 632 397 l 656 406 q 739 374 668 406 q 917 290 886 308 q 949 256 949 272 q 936 218 949 236 q 864 100 914 188 q 834 49 851 79 q 808 4 817 19 q 796 -14 799 -11 q 753 -26 789 -24 q 546 -31 718 -28 q 404 -32 485 -32 q 292 -24 306 -32 q 226 65 274 -11 q 164 164 206 97 q 96 275 122 231 q 72 339 72 317 q 74 365 72 354 q 83 549 78 404 q 92 707 89 697 q 128 738 94 718 q 269 813 161 757 z "},"D":{"ha":950,"x_min":69,"x_max":878,"o":"m 336 817 q 272 829 300 821 q 210 842 244 838 l 161 846 l 157 819 q 138 439 149 768 q 124 122 129 190 q 121 50 121 94 q 122 24 121 25 q 253 7 129 17 q 361 1 324 1 q 428 8 399 1 q 661 54 486 21 l 707 63 l 760 172 q 825 325 822 300 q 826 339 826 332 q 818 392 826 344 q 767 636 807 464 q 738 743 747 732 q 700 751 736 746 q 610 768 653 758 q 336 817 433 803 m 122 894 q 144 903 136 903 q 233 890 158 903 q 395 862 307 878 q 515 842 483 846 q 577 830 556 835 q 619 821 599 825 q 688 810 639 817 q 765 797 751 801 q 788 775 778 792 q 814 676 801 750 q 832 599 824 628 q 847 529 840 569 q 859 473 851 506 q 871 414 867 440 q 876 353 875 388 q 878 321 878 340 q 863 260 878 292 q 853 240 858 251 q 845 221 849 228 q 840 211 842 214 q 789 107 799 126 q 744 25 757 40 q 710 10 732 10 q 654 0 683 10 q 544 -25 626 -10 q 443 -44 463 -40 q 365 -53 403 -53 q 263 -49 333 -53 q 101 -31 136 -42 l 69 -22 l 71 78 q 78 315 74 183 q 88 564 83 446 q 101 819 94 756 q 122 894 107 882 m 493 578 q 364 606 371 606 q 357 601 358 606 q 345 453 353 593 q 338 250 338 314 q 339 224 338 225 q 381 225 347 215 q 451 238 407 231 q 537 259 522 246 q 558 333 551 272 q 571 399 564 381 q 585 470 576 414 q 594 544 594 526 q 493 578 594 556 m 315 656 q 343 664 324 664 q 408 653 361 664 q 485 635 419 650 q 574 614 551 621 q 625 600 582 611 q 661 568 661 592 q 656 543 661 563 q 638 460 647 515 q 579 211 601 229 q 528 197 571 206 q 438 180 486 188 q 382 169 390 172 q 317 161 361 164 q 288 165 294 161 q 278 181 281 168 q 276 201 276 183 q 281 272 276 233 q 293 442 286 313 q 315 656 303 643 z "},"E":{"ha":872,"x_min":75,"x_max":799,"o":"m 631 285 q 507 290 603 290 q 428 286 436 290 q 418 257 418 281 q 425 240 418 240 q 510 252 436 240 q 613 271 583 264 l 643 279 q 631 285 643 281 m 683 797 q 646 807 678 808 q 272 796 460 799 l 165 794 l 168 761 q 186 506 186 594 q 174 403 186 436 q 132 182 156 354 l 129 157 l 182 138 q 217 124 194 132 q 266 108 239 117 q 307 93 293 99 q 423 51 317 90 q 567 -1 529 11 q 594 -8 588 -8 q 658 15 606 -8 q 739 60 729 49 q 746 86 746 69 q 742 136 746 103 q 729 226 733 211 q 714 240 725 240 q 658 231 700 240 q 519 206 614 221 q 399 192 424 192 l 393 192 q 368 276 369 196 l 368 286 q 378 326 368 319 q 481 333 386 333 l 547 333 l 706 333 l 706 353 q 692 435 701 392 l 679 496 l 640 494 q 510 486 514 486 q 433 481 443 481 q 398 490 406 481 q 390 528 390 500 l 390 556 l 393 618 l 710 618 l 707 643 q 683 797 696 775 m 188 847 q 242 848 200 847 q 358 849 285 849 q 481 850 431 850 l 721 851 l 731 836 q 747 733 738 825 q 756 593 756 640 q 754 574 756 575 q 657 571 751 571 l 590 571 l 432 572 l 432 554 q 439 535 432 540 q 468 531 446 531 q 529 535 488 531 q 661 543 607 543 l 719 543 l 731 507 q 749 386 742 469 q 764 288 756 304 q 793 124 779 250 q 799 54 799 78 q 792 29 799 35 q 692 -22 781 18 l 603 -64 l 549 -46 q 253 61 431 -8 q 82 128 106 110 q 75 147 75 132 q 90 236 75 167 q 112 350 93 246 q 139 475 131 454 q 142 499 142 486 q 135 582 142 517 q 118 788 118 715 q 125 836 118 829 q 188 847 133 844 z "},"F":{"ha":965,"x_min":78,"x_max":889,"o":"m 810 882 q 771 886 801 886 q 599 881 719 886 q 400 875 597 881 l 310 874 l 301 843 q 286 772 297 829 q 249 579 250 586 q 235 514 239 529 q 192 288 224 475 q 178 221 185 249 q 167 171 171 193 q 156 107 163 149 q 140 29 147 42 q 138 18 138 21 q 181 -4 138 -4 q 257 -14 211 -4 q 442 -32 342 -32 q 467 -29 464 -32 q 468 -19 468 -28 q 464 17 468 -4 q 451 182 460 54 q 446 283 446 282 q 451 317 446 308 q 508 326 460 326 q 601 324 518 326 l 743 318 l 751 339 q 794 501 772 392 l 797 521 l 681 518 q 533 510 576 514 q 525 509 531 510 q 518 508 519 508 q 483 550 483 508 q 486 586 483 558 q 519 681 497 675 l 526 681 q 633 672 553 681 q 744 658 713 664 q 808 650 786 650 l 832 650 l 832 707 q 825 824 832 771 q 810 882 818 876 m 539 939 q 822 944 821 944 l 831 944 q 859 927 851 944 q 874 851 867 910 q 889 642 889 717 q 883 597 889 601 q 864 596 882 596 q 625 619 746 596 q 564 629 572 629 q 547 623 550 629 q 544 599 544 617 l 544 568 l 699 569 q 808 571 751 571 q 849 568 842 571 q 857 554 857 565 q 807 343 857 499 q 796 299 796 310 q 779 274 796 281 q 704 268 763 268 q 674 269 696 268 q 638 269 651 269 l 500 272 l 504 197 q 517 26 510 117 q 521 -61 521 -24 q 519 -83 521 -81 q 508 -95 517 -93 q 469 -97 499 -97 q 403 -90 421 -97 q 278 -72 382 -82 q 110 -51 142 -58 q 78 -22 78 -43 q 79 -4 78 -11 q 131 263 92 79 q 190 571 149 349 q 209 665 199 619 q 228 758 219 710 q 246 847 235 818 q 257 890 257 878 q 267 921 257 906 q 314 933 274 931 q 539 939 354 936 z "},"G":{"ha":1196,"x_min":71,"x_max":1119,"o":"m 639 311 q 619 319 639 319 q 563 310 594 318 q 532 297 532 303 q 504 286 532 292 q 465 272 465 278 q 482 265 465 269 q 514 254 504 261 q 560 242 518 250 q 617 235 603 235 l 621 235 q 631 272 624 238 q 639 311 639 306 m 435 278 q 436 280 435 278 q 435 294 438 281 q 424 332 432 308 q 410 386 417 356 q 397 426 400 426 q 390 415 394 426 q 378 340 383 396 q 375 301 375 304 q 378 287 375 290 q 389 283 381 283 q 422 279 408 283 q 435 278 433 276 m 575 536 q 597 538 575 536 q 618 543 618 540 q 578 555 618 546 q 498 573 539 564 q 453 586 457 582 q 415 597 444 597 q 407 596 408 597 q 401 554 401 590 l 401 519 l 436 524 q 485 528 438 524 q 575 536 532 532 m 819 11 q 848 -10 819 8 q 876 -32 876 -28 q 904 -51 876 -36 q 940 -78 933 -68 q 957 -90 949 -90 q 978 -64 969 -90 q 997 -25 982 -50 q 1017 17 1013 0 q 1031 44 1022 40 q 1047 68 1038 50 q 1056 96 1056 86 q 1053 103 1056 100 q 1019 117 1050 106 q 985 132 989 128 q 949 147 979 138 q 913 181 913 158 q 922 201 913 192 q 938 257 932 211 q 953 324 943 303 q 969 375 964 342 q 972 396 972 392 q 956 429 972 408 q 935 463 935 453 q 922 475 935 469 q 906 497 913 479 l 899 514 l 793 510 q 678 499 688 504 q 558 486 675 497 q 439 474 442 475 q 443 447 436 469 q 453 407 453 422 q 458 392 453 392 q 469 363 464 392 q 476 338 472 343 q 492 333 481 333 q 513 340 508 333 q 550 351 517 346 q 636 378 589 357 q 675 386 647 383 l 700 388 l 700 347 q 685 285 697 315 q 669 232 674 254 q 658 197 663 206 q 642 186 653 189 l 639 186 q 633 185 636 185 q 540 199 607 185 q 463 219 472 213 q 393 238 454 225 q 328 264 332 250 q 326 282 326 267 q 333 378 326 317 q 343 442 339 439 q 357 542 350 449 q 372 644 364 636 q 388 649 376 649 q 442 640 403 649 q 503 622 503 628 q 565 604 503 617 q 633 585 629 592 q 679 576 638 579 l 693 576 q 740 593 724 576 q 776 624 757 610 q 788 632 782 628 q 798 639 794 636 q 806 645 801 642 q 812 650 810 649 q 817 654 814 651 q 821 658 819 657 q 823 662 822 660 q 824 666 824 664 q 825 671 825 668 q 819 700 825 672 q 804 738 813 738 q 797 750 797 738 q 792 768 797 764 q 781 794 789 771 q 764 821 772 818 q 747 831 753 825 q 686 847 743 835 q 589 875 596 867 q 499 885 582 885 q 471 883 476 885 q 449 874 456 878 q 321 840 432 860 q 294 829 294 836 q 281 824 294 824 q 263 811 272 824 q 246 783 254 799 q 235 764 238 767 q 194 709 224 753 q 164 661 164 665 q 153 647 164 654 q 140 600 143 640 q 129 385 136 560 q 125 275 125 311 q 147 192 125 214 q 175 150 158 181 q 201 113 193 118 q 218 88 214 103 q 240 72 221 75 q 357 65 260 68 q 583 61 469 61 q 679 53 674 61 q 721 46 683 46 q 753 42 739 46 q 785 31 767 39 q 807 21 804 22 q 819 11 819 15 m 138 119 q 115 154 119 154 q 96 183 111 154 q 76 211 81 211 q 71 265 71 211 q 76 319 71 319 q 86 481 81 319 q 94 631 89 601 q 119 686 100 661 q 163 749 126 694 q 211 822 200 804 q 307 885 242 874 q 449 925 332 890 q 514 935 485 935 l 521 935 q 593 923 550 932 q 639 908 636 914 q 703 890 642 906 q 765 874 764 875 q 792 864 771 869 q 822 828 811 858 q 833 789 833 801 q 839 779 833 782 q 865 717 846 776 l 883 657 l 865 632 q 836 607 846 607 q 818 594 828 607 q 785 567 808 582 l 761 553 q 844 556 789 554 q 926 558 899 558 l 938 536 q 956 514 950 514 q 975 488 961 514 q 1004 444 989 460 q 1021 406 1021 428 q 1009 333 1021 385 q 992 276 997 281 q 981 242 988 274 q 974 196 974 211 q 975 189 974 190 q 993 183 976 183 q 1007 176 1007 183 q 1060 154 1007 169 q 1118 128 1114 136 q 1119 118 1119 125 q 1108 82 1119 90 q 1071 14 1097 71 q 1042 -42 1056 -19 q 1014 -100 1028 -65 q 969 -149 994 -149 q 950 -142 961 -149 q 935 -134 947 -140 q 915 -122 924 -128 q 906 -112 906 -117 q 893 -103 906 -108 q 856 -76 879 -97 q 826 -54 831 -54 q 807 -40 821 -54 q 682 3 763 3 q 621 10 625 3 q 419 17 617 17 q 226 22 264 17 q 182 51 188 28 q 165 76 178 67 q 138 119 158 81 z "},"H":{"ha":1156,"x_min":74,"x_max":1085,"o":"m 468 836 q 349 851 454 843 q 214 860 244 860 l 188 860 l 183 789 q 178 672 178 711 q 171 618 178 625 q 157 435 167 614 q 143 254 150 261 q 132 125 138 250 q 122 -17 126 -3 q 123 -31 119 -28 q 140 -33 126 -33 q 167 -26 163 -33 q 235 -18 172 -18 q 379 -14 311 -18 l 461 -10 l 456 85 q 443 226 450 179 q 431 329 431 304 q 439 360 431 351 q 468 369 449 369 q 483 365 479 369 q 526 351 489 360 q 598 336 564 343 q 632 326 632 329 q 668 315 632 319 q 740 293 706 310 q 761 283 756 286 q 770 275 767 279 q 774 265 774 271 q 771 249 774 263 q 760 215 765 221 q 750 161 756 208 q 735 93 746 117 q 720 31 729 81 q 711 -35 711 -19 q 729 -36 711 -36 q 814 -32 761 -36 q 868 -25 867 -28 q 933 -18 871 -18 q 1019 -14 1000 -18 l 1042 -10 l 1038 71 q 1028 157 1032 150 q 1013 367 1022 165 q 999 582 1006 563 q 988 683 993 593 q 979 810 981 796 l 975 851 l 899 847 q 819 836 821 842 q 753 831 817 831 l 688 831 l 693 797 q 703 758 697 764 q 717 668 707 754 q 733 569 726 581 q 740 540 740 556 q 729 507 740 515 q 644 497 722 501 q 503 492 565 492 q 449 494 465 492 q 433 503 438 497 q 429 528 429 510 q 436 558 429 556 q 451 625 440 560 q 465 693 463 690 q 474 718 471 699 q 481 765 478 738 q 485 797 483 792 q 486 815 486 806 q 468 836 486 829 m 525 701 q 508 633 519 701 q 493 564 497 564 q 488 553 488 564 q 529 542 488 542 q 622 547 539 542 l 682 551 l 682 579 q 675 607 682 607 q 664 645 669 607 q 653 724 658 683 q 646 769 649 765 q 636 842 636 783 q 639 867 636 863 q 940 900 650 885 l 1017 904 l 1025 883 q 1053 460 1038 857 q 1064 344 1058 357 q 1077 190 1069 333 q 1085 -24 1085 47 q 1083 -54 1085 -51 q 1063 -65 1081 -62 q 961 -72 1046 -68 q 892 -74 932 -74 q 810 -76 853 -75 q 750 -78 767 -78 l 657 -81 l 654 -62 q 660 -5 653 -49 q 675 57 668 39 q 686 123 676 61 q 701 189 696 185 q 714 225 708 194 l 718 254 l 694 254 q 653 265 672 254 q 592 281 647 268 q 531 299 536 293 q 507 308 525 304 q 496 310 501 310 q 488 281 488 310 q 494 247 488 247 q 514 25 501 247 q 515 -14 515 10 q 507 -56 515 -44 q 465 -66 501 -64 q 286 -71 429 -68 l 74 -72 l 76 46 q 85 176 79 132 q 94 294 92 219 q 115 580 97 372 q 135 882 132 788 q 147 911 136 908 q 178 913 151 913 q 368 901 264 913 q 482 890 450 892 q 533 879 519 888 q 547 847 547 871 q 542 801 547 828 q 532 725 532 750 q 525 701 529 701 z "},"I":{"ha":476,"x_min":69,"x_max":401,"o":"m 357 907 q 247 928 354 911 q 128 946 139 946 l 107 946 l 107 886 q 114 661 107 814 q 126 289 121 504 l 131 82 l 301 82 l 304 113 q 324 360 307 133 q 336 551 328 413 q 349 739 344 690 q 358 896 358 863 l 357 907 m 72 994 q 93 1000 76 1000 q 194 983 118 1000 q 226 976 203 982 q 274 966 250 971 q 318 957 299 961 q 400 936 394 942 q 401 921 401 935 q 396 840 401 885 q 356 233 390 775 q 335 39 343 47 q 265 32 329 32 q 104 47 119 32 q 83 399 96 57 q 69 915 69 740 q 72 994 69 992 z "},"J":{"ha":681,"x_min":76,"x_max":611,"o":"m 389 894 q 318 910 319 910 q 350 668 346 694 q 379 426 379 471 q 372 354 379 406 q 363 267 363 289 q 363 263 363 265 q 349 242 360 243 l 346 242 q 290 304 332 242 q 244 369 247 369 q 181 304 239 369 l 121 239 q 301 57 182 179 l 361 71 q 486 97 475 94 q 551 113 549 110 q 561 439 554 115 q 574 808 568 761 l 578 857 l 518 868 q 460 879 510 869 q 389 894 411 889 m 299 951 q 389 936 324 951 q 528 906 472 917 q 603 885 589 893 q 611 819 611 878 q 606 567 611 743 q 583 81 592 88 q 522 65 581 78 q 299 17 322 21 q 185 118 283 17 q 78 231 86 217 q 76 235 76 232 q 190 374 76 253 q 247 422 236 422 q 252 422 250 422 q 258 418 254 421 q 263 413 261 415 q 269 404 265 410 q 276 395 274 399 q 283 383 278 392 q 293 369 289 375 q 326 326 318 331 q 338 442 338 326 q 336 475 338 468 q 276 939 276 876 q 299 951 276 951 z "},"K":{"ha":992,"x_min":75,"x_max":917,"o":"m 307 896 q 272 903 276 896 q 228 910 268 910 l 188 910 l 190 678 q 191 614 190 653 q 192 561 192 575 q 175 351 192 442 q 150 236 160 258 q 135 172 140 215 q 131 151 133 163 q 128 131 129 139 q 126 121 126 124 q 153 110 126 115 q 210 102 181 106 q 243 97 240 99 q 303 85 249 93 q 376 76 358 76 l 381 76 q 394 229 382 78 q 406 355 401 326 q 421 393 411 383 q 438 406 436 407 q 465 358 444 397 q 489 307 486 318 q 521 229 492 297 q 560 135 546 178 q 581 90 572 96 q 596 86 585 86 q 621 97 621 86 q 633 104 621 104 q 722 123 650 104 q 810 150 794 142 q 840 161 829 161 q 850 172 850 161 q 826 215 850 192 q 808 244 808 236 q 794 271 808 254 q 761 315 779 289 q 743 347 743 342 q 732 363 743 351 q 703 407 724 371 q 678 442 686 442 q 671 449 671 442 q 656 478 671 457 q 644 503 644 493 q 650 528 644 513 q 672 569 661 558 q 704 626 685 583 q 731 671 724 668 q 758 721 736 672 q 790 775 782 771 q 801 789 801 781 q 817 830 801 797 q 840 868 833 863 q 843 872 843 871 q 724 882 843 878 l 621 885 l 617 867 q 575 729 592 760 q 556 666 568 717 q 538 603 543 615 l 528 579 l 453 579 q 363 583 378 579 q 349 601 349 586 q 350 624 349 614 q 361 664 354 660 q 390 751 368 668 q 419 838 411 829 q 429 864 424 840 l 435 886 l 386 890 q 307 896 333 896 m 151 950 q 193 960 163 960 q 224 954 214 960 q 357 938 235 947 q 485 919 478 929 q 488 907 488 914 q 481 869 488 890 q 469 844 475 849 q 446 775 465 842 q 426 697 426 708 q 421 686 426 686 q 409 664 417 686 q 401 633 401 642 q 447 624 401 629 q 458 623 451 624 q 468 622 465 622 q 497 633 490 622 q 510 679 504 643 q 521 708 515 708 q 529 725 525 708 q 556 822 536 760 q 578 888 575 885 q 588 913 582 890 l 593 933 l 740 928 q 899 919 892 922 q 908 900 908 915 q 897 872 908 883 q 865 821 882 857 q 788 679 799 686 q 758 628 785 678 q 729 579 732 579 q 708 543 724 579 l 692 506 l 707 482 q 724 459 717 468 q 738 442 732 450 q 754 410 743 433 q 785 365 772 372 q 803 343 792 361 q 837 286 818 313 q 867 240 856 260 q 886 211 881 211 q 904 185 892 211 q 917 147 917 160 q 878 122 917 133 q 828 111 842 111 q 801 101 818 111 q 643 56 771 85 q 621 44 625 50 q 585 36 617 39 l 572 36 q 553 42 558 36 q 540 71 549 47 q 519 115 531 96 q 494 171 508 135 q 469 226 474 226 q 460 250 465 226 q 453 267 456 267 q 433 146 442 267 q 413 33 425 43 q 393 28 401 25 q 356 32 392 29 q 288 38 321 35 q 254 46 254 42 q 213 56 254 50 q 99 72 124 65 q 75 96 75 79 q 81 124 75 101 q 93 193 89 160 q 103 236 97 229 q 128 360 107 243 q 146 538 146 458 q 143 707 146 549 q 140 874 140 865 q 151 950 140 943 z "},"L":{"ha":679,"x_min":69,"x_max":606,"o":"m 360 863 q 308 873 358 868 q 201 882 258 878 q 139 886 143 886 l 107 890 l 113 503 q 119 113 118 114 l 124 113 q 197 118 128 113 q 297 126 218 119 q 413 136 375 133 q 554 150 553 149 l 560 206 l 564 260 l 433 264 q 296 275 303 269 q 293 293 293 278 q 333 629 293 343 q 361 853 361 825 q 360 863 361 861 m 79 928 q 108 936 92 940 q 250 924 125 932 q 382 913 361 917 q 407 900 403 910 q 408 890 408 899 q 401 826 408 868 q 361 543 364 560 q 349 459 357 514 q 340 392 342 404 q 333 325 333 347 l 333 306 l 425 306 q 563 301 525 306 l 606 296 l 606 264 q 588 128 606 242 q 560 108 585 113 q 413 96 535 104 q 282 82 286 89 q 181 71 276 76 l 82 67 l 78 276 q 69 808 69 701 q 79 928 69 919 z "},"M":{"ha":961,"x_min":69,"x_max":892,"o":"m 275 790 q 193 799 274 790 l 140 804 l 140 772 q 128 510 140 714 q 114 268 115 307 l 110 133 l 133 129 q 215 121 142 128 l 272 117 l 268 144 q 249 259 265 161 q 228 388 233 357 q 222 429 222 421 q 224 435 222 433 q 236 440 228 440 q 319 407 257 440 l 381 374 l 383 242 q 392 111 386 111 q 451 118 403 111 l 506 126 l 510 182 q 519 336 514 228 q 529 439 525 436 q 613 447 546 447 q 639 444 638 447 q 640 426 640 443 q 635 285 640 404 q 631 142 631 189 l 631 129 l 633 129 q 774 161 650 129 q 806 169 783 164 q 833 176 829 175 l 860 183 l 857 243 q 854 301 856 257 q 849 422 853 344 q 844 549 846 499 l 835 796 l 814 792 q 718 779 792 788 q 640 760 654 772 q 568 647 626 747 q 460 466 481 497 q 429 435 440 435 q 407 466 418 435 q 360 636 396 497 q 315 778 328 769 q 275 790 308 785 m 110 840 q 128 843 111 843 q 154 842 144 843 q 347 815 332 822 q 361 786 357 810 q 363 782 363 783 q 386 693 368 757 q 399 638 390 678 q 417 566 408 599 q 433 518 426 533 l 435 517 q 511 629 444 517 q 619 797 600 779 q 664 813 632 808 q 846 832 819 832 q 865 828 861 832 q 890 321 885 811 l 892 151 l 758 117 q 606 82 626 82 l 585 82 l 589 160 q 593 242 590 183 q 597 322 596 301 l 603 406 l 558 406 l 554 254 q 540 97 547 103 q 443 78 533 90 q 367 69 383 69 q 349 75 353 69 q 343 144 343 81 q 344 217 343 189 l 350 347 l 313 365 q 274 382 279 382 l 272 382 q 279 315 269 379 q 285 276 281 306 q 294 220 290 246 q 301 176 299 194 q 311 100 311 118 q 311 94 311 97 l 310 92 q 268 82 306 82 q 193 85 263 82 q 74 93 78 90 q 69 135 69 94 q 71 182 69 164 q 74 242 72 201 q 78 336 75 282 q 82 424 81 390 q 110 840 101 825 z "},"N":{"ha":964,"x_min":72,"x_max":893,"o":"m 783 813 q 771 844 778 844 q 758 842 769 844 q 728 838 747 840 q 693 832 710 835 l 622 821 l 622 643 q 620 495 622 526 q 611 461 618 464 q 604 458 608 460 q 600 456 601 457 l 597 456 l 392 701 q 384 710 390 703 q 367 732 378 718 q 344 758 356 746 l 299 813 l 247 810 q 190 804 193 807 q 179 724 186 800 q 153 510 169 650 q 133 338 138 371 q 126 274 131 314 q 118 213 121 235 q 114 182 115 190 l 110 147 l 339 147 q 457 269 397 210 l 457 353 q 471 436 457 436 q 563 318 488 436 q 663 164 646 192 q 700 127 683 133 q 790 114 717 121 l 853 108 l 851 133 q 846 215 851 172 q 799 674 824 392 q 783 813 788 783 m 688 869 q 781 885 778 882 q 790 888 783 888 q 813 870 806 886 q 824 804 819 854 q 853 528 851 544 q 863 422 858 467 q 874 321 867 378 q 886 208 881 264 q 893 106 893 142 q 888 78 893 83 q 854 72 882 72 q 776 76 833 72 q 667 92 678 83 q 610 172 663 96 q 494 342 500 342 q 493 330 493 340 q 496 301 493 319 q 497 278 497 292 q 467 225 497 258 q 390 144 440 194 l 349 101 l 214 106 q 74 117 79 111 q 72 132 72 118 q 79 219 72 157 q 96 367 83 254 q 114 518 108 481 q 129 640 115 521 q 160 839 147 826 q 242 849 167 843 l 318 854 q 447 698 361 801 q 575 542 532 594 l 578 692 q 589 850 579 843 q 688 869 596 857 z "},"O":{"ha":894,"x_min":74,"x_max":824,"o":"m 664 844 q 658 852 663 846 q 651 859 653 858 q 642 863 650 860 q 624 865 635 865 q 593 865 613 865 q 546 865 575 865 q 463 863 517 864 q 361 860 410 861 q 196 846 219 856 q 160 792 169 836 q 151 743 158 785 q 131 658 139 669 q 124 579 124 649 q 132 483 124 494 q 142 435 136 478 q 172 236 160 251 q 190 197 179 231 q 206 168 201 168 q 219 147 208 168 q 238 122 226 128 q 282 121 240 121 q 464 124 317 121 q 653 129 624 126 q 685 142 682 132 q 703 171 689 154 q 721 213 715 183 q 731 240 726 240 q 740 268 735 240 q 768 399 758 399 q 774 464 774 399 q 767 528 774 528 q 758 574 761 528 q 740 726 758 600 q 726 768 735 764 q 715 783 715 774 q 700 807 715 792 q 664 844 689 817 m 457 919 q 581 921 511 921 q 646 917 625 921 q 673 908 667 913 q 694 886 679 904 q 743 829 732 846 q 767 801 761 801 q 792 701 782 801 q 803 647 796 657 q 816 559 808 640 q 824 433 824 478 q 822 413 824 417 q 818 388 822 411 q 810 349 814 365 q 803 333 807 333 q 792 296 797 333 q 765 183 778 183 q 756 167 760 183 q 737 133 751 154 q 718 100 722 111 l 711 78 l 485 72 q 286 68 346 68 q 219 72 239 68 q 196 80 199 76 q 188 100 193 83 q 171 132 178 128 q 151 165 168 135 q 132 197 135 194 q 115 261 126 200 q 104 346 104 322 q 99 372 104 368 q 82 490 94 376 q 74 596 74 567 q 81 661 74 619 q 96 733 90 717 q 118 828 118 789 q 135 857 118 840 q 176 897 167 892 q 222 903 186 903 l 232 903 q 296 910 289 903 q 457 919 303 917 m 535 601 q 447 608 513 601 q 369 618 382 614 q 363 621 364 621 q 357 599 357 621 q 364 474 357 585 q 378 347 371 358 q 385 321 385 336 q 407 310 385 310 q 438 311 424 310 q 496 321 489 314 q 518 326 501 326 q 538 348 533 326 q 543 435 543 369 q 550 503 543 499 q 557 554 557 507 l 557 600 l 535 601 m 311 667 q 336 668 315 668 q 447 662 379 668 q 518 650 515 656 q 557 643 522 643 q 600 635 592 643 q 603 603 603 632 q 600 528 603 560 q 594 365 594 422 q 586 299 592 299 q 579 289 579 299 q 490 269 579 279 q 365 260 403 260 q 338 264 342 260 q 326 346 333 268 q 320 422 325 365 q 313 500 315 478 q 301 644 301 611 q 311 667 301 665 z "},"P":{"ha":861,"x_min":69,"x_max":785,"o":"m 675 733 q 628 842 636 840 l 624 842 q 556 833 614 842 q 200 781 411 811 q 104 763 110 768 q 103 710 103 761 q 106 474 103 668 l 113 188 l 213 156 q 314 128 293 128 l 315 128 q 288 349 322 132 q 283 388 283 375 q 290 408 283 401 q 443 426 300 418 q 640 447 581 435 q 725 486 699 460 l 750 511 l 735 558 q 675 733 714 621 m 574 878 q 640 886 626 886 q 660 882 653 886 q 731 692 668 876 q 785 507 785 533 q 760 461 785 485 q 757 458 758 461 l 751 454 q 546 394 703 406 l 401 383 l 324 375 l 328 356 q 344 246 332 338 q 358 115 356 154 l 361 88 q 349 75 361 75 q 222 110 336 75 q 88 156 108 146 l 69 165 l 69 799 l 101 803 q 418 853 215 821 q 574 878 532 869 m 522 678 l 518 701 l 374 701 l 378 671 q 413 488 404 488 q 475 522 421 488 l 535 561 l 531 608 q 522 678 524 669 m 414 744 q 547 733 539 744 q 565 652 553 728 q 576 551 576 576 q 495 489 576 543 q 403 435 414 435 q 385 444 392 435 q 353 581 378 453 q 329 735 329 710 q 414 744 329 744 z "},"Q":{"ha":1188,"x_min":72,"x_max":1110,"o":"m 868 210 q 845 224 864 210 q 821 238 826 238 q 806 278 806 238 q 821 338 806 318 q 829 438 829 346 q 821 547 829 538 q 804 639 814 556 q 790 728 796 722 q 783 747 783 735 q 768 776 783 758 q 733 817 757 788 q 690 863 710 847 q 619 875 675 875 q 588 869 592 875 q 394 858 583 864 q 193 849 204 853 q 174 814 181 844 q 160 782 163 782 q 150 732 157 782 q 139 682 143 682 q 126 635 133 682 q 124 575 124 622 q 138 410 124 442 q 150 331 139 407 q 169 219 157 274 q 188 158 181 164 q 218 108 189 157 q 250 57 247 58 q 486 56 254 56 q 688 52 657 54 q 732 39 719 50 q 747 17 747 21 q 771 -14 747 13 q 826 -85 826 -78 q 833 -92 826 -92 q 840 -86 840 -92 q 860 -69 840 -79 q 924 -17 881 -58 q 1004 58 936 -4 q 1040 94 1040 92 q 985 126 1040 101 q 942 156 958 142 q 907 178 925 172 q 883 196 892 183 q 868 210 876 210 m 769 -99 q 755 -81 764 -99 q 742 -62 746 -62 q 729 -50 733 -62 q 708 -17 721 -29 l 690 1 l 464 1 q 221 6 233 1 q 189 43 207 10 q 175 70 182 57 q 163 93 168 83 q 153 118 158 103 q 139 138 146 138 q 125 161 132 138 q 118 206 118 185 q 111 231 118 231 q 97 326 107 231 q 81 425 88 421 q 72 549 72 429 q 81 676 72 667 q 99 749 88 683 q 111 811 107 811 q 118 832 118 811 q 131 861 118 853 q 150 882 146 868 q 199 905 156 899 q 367 911 243 911 q 525 918 525 911 q 618 925 525 925 l 711 925 l 736 899 q 763 863 763 872 q 772 853 763 853 q 783 846 783 853 q 808 815 783 838 q 829 788 824 801 q 838 746 835 775 q 849 696 842 714 q 860 649 857 678 q 871 597 865 604 q 879 450 879 586 q 871 311 879 315 q 863 285 863 307 q 866 264 863 269 q 883 256 869 258 q 906 244 906 250 q 929 229 906 240 q 982 194 957 218 q 1011 176 996 181 q 1058 147 1033 169 l 1083 133 q 1110 100 1110 118 q 1082 60 1110 86 q 990 -29 1049 29 q 917 -94 926 -90 q 906 -110 906 -99 q 896 -121 906 -121 q 869 -142 886 -121 q 821 -164 851 -164 q 804 -153 804 -164 q 790 -129 804 -140 q 776 -108 776 -118 q 769 -99 776 -99 m 540 582 q 486 589 490 582 q 425 596 482 596 l 368 596 l 368 565 q 375 528 368 535 q 386 411 381 522 q 397 303 392 303 q 404 281 404 303 l 404 260 l 447 260 q 490 267 490 260 q 532 275 490 272 l 572 276 l 574 367 q 583 463 576 456 q 590 525 590 469 l 590 582 l 540 582 m 319 649 q 346 650 322 650 q 453 646 389 650 q 526 638 518 642 q 582 632 536 632 q 615 631 606 632 q 633 624 624 631 q 644 603 642 617 q 646 563 646 589 q 643 482 646 549 q 632 343 638 358 q 626 285 626 333 q 615 233 626 243 q 558 224 604 224 q 518 217 518 224 q 472 209 518 213 q 390 206 426 206 q 364 207 367 206 q 349 246 354 211 q 335 417 344 281 q 317 581 325 578 q 310 610 310 583 q 319 649 310 644 z "},"R":{"ha":963,"x_min":69,"x_max":883,"o":"m 714 747 l 694 811 l 640 810 q 579 807 588 810 q 460 800 571 804 q 243 792 350 796 q 135 786 136 788 l 131 649 q 120 345 125 511 q 114 108 115 179 l 114 69 l 150 64 q 314 47 281 47 l 315 47 q 311 99 318 50 q 282 367 282 325 q 283 372 282 369 l 283 376 q 319 385 289 390 q 371 369 363 378 q 410 286 379 361 q 435 233 431 238 q 439 215 439 229 q 446 201 439 201 q 455 192 450 201 q 463 171 460 183 q 468 156 467 158 q 511 51 504 58 q 521 36 517 46 q 548 25 524 28 q 661 22 572 22 q 792 31 792 22 q 790 35 792 33 q 696 138 782 50 q 522 319 561 276 q 483 375 483 363 q 501 390 483 388 q 613 396 519 393 l 739 399 l 764 426 q 794 471 794 460 q 770 573 794 490 q 739 658 746 656 q 733 672 733 660 q 714 747 733 686 m 567 850 q 630 853 567 850 q 693 856 692 856 q 696 856 694 856 q 699 857 697 857 q 729 826 719 857 q 740 803 733 807 q 786 661 751 796 q 804 614 796 625 q 853 463 853 556 q 836 435 853 454 q 819 411 819 417 q 808 403 819 403 q 778 378 797 403 l 758 353 l 660 353 q 561 349 561 353 q 601 304 561 344 q 746 153 606 300 q 868 28 867 28 q 883 -4 883 13 l 883 -19 l 757 -19 q 560 -15 615 -19 l 492 -11 l 461 54 q 414 165 436 110 q 390 217 401 197 q 364 276 378 238 q 333 336 340 335 l 332 336 q 325 304 325 336 q 332 269 325 276 q 351 164 339 263 q 363 19 363 65 q 361 1 363 4 q 340 -12 353 -12 q 319 -7 329 -12 q 194 13 308 0 q 74 39 83 24 q 69 140 69 47 q 79 560 69 306 q 97 819 89 814 q 151 825 108 825 q 197 831 196 825 q 320 839 197 833 q 567 850 443 844 m 439 617 l 439 653 l 289 653 l 289 629 q 283 571 289 607 l 279 536 l 364 540 q 451 549 449 546 q 453 556 454 550 q 449 567 453 561 q 439 617 439 581 m 247 681 q 268 694 253 692 q 358 696 283 696 q 472 686 464 696 q 488 603 481 678 q 492 543 492 565 q 471 503 492 510 q 363 493 450 496 q 288 490 296 490 q 242 500 247 490 q 236 558 236 507 q 247 681 236 656 z "},"S":{"ha":732,"x_min":75,"x_max":656,"o":"m 533 832 q 407 853 490 853 q 297 831 319 853 q 281 825 293 825 q 226 761 269 825 q 169 663 183 697 q 160 579 160 638 l 160 551 l 163 471 l 188 458 q 243 433 210 447 q 274 415 274 421 q 290 406 274 410 q 349 353 338 392 q 358 331 354 331 q 376 301 365 331 q 386 256 388 271 l 385 235 l 294 232 l 263 232 q 151 251 151 232 q 140 260 151 260 q 131 246 131 260 q 147 140 131 231 l 161 75 l 204 71 q 328 65 251 65 q 414 72 392 65 q 464 107 436 79 q 488 124 478 124 q 522 142 494 124 q 564 176 549 161 q 579 207 579 192 q 578 217 579 211 q 576 235 578 224 q 574 257 575 247 q 561 351 564 317 q 551 381 558 372 q 517 408 544 390 q 443 454 510 414 q 399 495 419 468 q 365 533 379 522 q 346 561 346 549 q 347 576 346 571 q 358 603 353 603 q 383 646 367 603 q 413 693 404 692 l 415 694 q 419 694 418 694 q 491 684 440 694 q 549 668 542 674 q 583 656 553 664 l 611 651 l 607 689 q 603 767 603 719 q 599 799 603 792 q 585 811 596 807 q 564 819 583 813 q 533 832 544 826 m 275 274 q 338 275 338 274 q 323 308 338 276 q 308 343 308 340 q 292 361 308 350 q 258 378 275 372 q 208 397 240 383 q 174 415 176 411 q 147 432 169 419 q 122 464 126 443 q 117 564 118 485 l 117 592 q 126 669 117 651 q 231 847 210 826 q 333 889 243 860 q 367 894 351 894 q 444 889 385 894 q 579 863 519 882 q 638 831 631 846 q 651 710 644 817 q 656 642 656 661 q 649 611 656 618 q 635 606 643 606 q 494 636 617 606 q 446 644 461 644 q 422 634 431 644 q 406 593 414 624 q 400 567 400 576 q 419 536 400 557 q 446 503 443 510 q 510 465 449 496 q 582 415 569 433 q 606 314 592 401 q 619 182 619 226 q 617 163 619 168 q 572 127 610 153 q 531 99 535 101 q 468 57 507 79 l 425 31 l 282 31 q 132 39 139 31 q 113 115 128 43 q 94 192 97 188 q 82 239 89 199 q 75 300 75 279 q 76 310 75 308 q 90 317 81 317 q 160 294 101 317 q 275 274 211 274 z "},"T":{"ha":767,"x_min":75,"x_max":692,"o":"m 483 796 q 346 801 443 797 q 221 807 249 806 q 157 808 196 808 q 126 806 126 808 q 136 760 126 796 q 156 668 143 733 q 168 614 165 615 l 171 614 q 238 625 189 614 q 324 638 300 638 q 343 632 339 638 q 344 615 344 631 q 324 299 344 574 q 311 124 321 267 l 308 86 l 364 90 q 415 94 368 90 q 498 101 463 97 q 533 110 533 104 q 560 117 533 117 q 581 122 582 118 q 542 299 575 129 q 508 460 532 356 q 468 669 468 647 q 471 681 468 675 q 486 689 479 689 q 540 669 493 689 q 592 644 588 650 q 621 629 597 639 l 646 618 l 650 701 q 654 786 656 785 q 483 796 653 788 m 83 850 q 113 860 92 860 q 140 858 129 860 q 236 854 143 858 q 421 845 329 850 q 513 839 513 840 q 594 831 513 836 q 685 821 675 825 q 692 778 692 817 q 689 704 692 768 q 681 581 683 589 q 660 567 676 567 q 644 574 651 567 q 581 604 639 579 q 515 629 522 629 q 516 615 514 629 q 524 582 518 601 q 615 142 558 426 q 622 97 622 114 q 617 81 622 86 q 467 60 608 72 q 322 42 326 47 q 306 36 317 36 q 272 50 282 36 q 267 85 267 61 q 269 126 267 93 q 283 317 269 128 q 301 549 297 507 q 304 586 304 585 q 300 594 304 594 q 290 593 294 594 q 265 589 288 592 q 223 582 242 586 q 204 574 204 578 q 174 567 204 567 q 147 570 153 567 q 135 588 140 574 q 94 761 124 614 q 79 828 79 826 q 83 850 75 839 z "},"U":{"ha":792,"x_min":69,"x_max":717,"o":"m 336 749 q 292 760 333 754 q 200 769 251 765 q 146 772 149 772 l 108 776 l 113 539 q 117 221 117 343 l 117 142 l 183 119 q 332 67 286 85 l 414 38 l 500 67 q 596 104 586 94 q 643 464 606 114 q 658 581 649 514 q 672 697 668 649 l 676 751 l 582 754 l 485 757 q 486 689 483 757 q 493 503 489 621 q 500 292 500 329 q 496 240 500 244 q 386 231 488 231 q 289 235 310 231 q 268 260 268 239 q 274 293 268 265 q 314 560 278 313 q 338 739 338 717 q 336 749 338 747 m 71 813 q 97 818 76 818 q 185 811 115 818 q 354 790 324 796 q 385 765 385 783 q 381 739 385 756 q 376 713 379 731 q 370 670 374 696 q 364 628 367 644 q 325 360 350 517 q 319 323 324 347 q 314 293 315 299 l 311 274 l 386 274 q 449 276 436 274 q 461 286 461 278 q 454 542 461 319 q 450 750 450 674 q 451 790 450 789 q 499 793 454 793 q 713 782 693 793 q 717 767 717 781 q 650 181 717 729 q 631 75 638 82 q 519 31 622 67 l 417 -4 l 358 15 q 85 117 96 106 q 75 363 81 121 q 69 743 69 604 q 71 813 69 810 z "},"V":{"ha":825,"x_min":78,"x_max":747,"o":"m 206 750 q 129 765 143 765 q 121 760 121 765 q 122 756 121 758 q 122 751 122 753 q 147 542 125 732 l 169 349 l 218 203 q 271 54 265 60 q 282 53 272 53 q 374 60 311 53 q 440 71 436 67 q 664 615 447 78 q 694 707 694 690 q 607 713 694 713 l 524 714 l 517 692 q 436 456 486 611 q 368 258 371 264 q 347 244 360 244 q 328 482 333 244 l 322 721 l 300 726 q 281 731 299 726 q 244 741 264 736 q 206 750 224 746 m 83 807 q 103 815 92 818 q 228 783 104 815 q 357 746 351 750 q 369 561 368 738 l 369 385 l 383 424 q 500 758 494 753 q 515 760 501 760 q 647 753 556 760 q 743 742 738 746 q 747 731 747 739 q 726 665 747 711 q 558 249 700 603 q 469 36 475 42 q 285 11 457 26 q 257 10 272 10 q 236 24 242 10 q 225 56 229 46 q 167 229 204 101 q 125 399 131 357 q 82 738 86 708 q 78 785 78 771 q 83 807 78 801 z "},"W":{"ha":1153,"x_min":78,"x_max":1075,"o":"m 847 754 q 810 775 814 775 q 782 715 806 775 q 760 660 775 699 q 740 610 744 622 q 704 517 728 575 q 671 431 681 458 q 649 365 653 381 q 631 333 642 343 q 615 326 621 326 q 596 365 596 326 q 585 526 596 386 q 569 707 575 667 q 562 735 567 729 q 535 746 557 740 q 492 753 507 753 q 474 724 482 753 q 428 524 465 694 q 383 335 392 364 q 365 306 375 306 l 363 306 q 351 312 356 306 q 342 344 347 318 q 334 415 338 369 q 325 542 331 460 l 313 721 l 219 740 q 178 748 201 743 q 142 755 154 753 q 126 757 129 757 l 125 757 q 165 571 121 753 q 267 124 196 451 q 286 50 282 54 q 292 49 289 49 q 342 58 306 49 q 386 71 357 63 q 422 81 415 79 q 453 97 453 89 q 476 181 453 101 q 514 258 500 258 q 635 181 529 258 q 746 107 733 107 q 834 266 750 107 q 974 535 918 425 q 1025 650 1025 633 q 1024 654 1025 653 q 986 678 1022 656 q 918 715 968 689 q 847 754 868 740 m 779 818 q 790 824 783 824 q 846 801 807 824 q 890 778 888 778 q 985 725 894 778 q 1057 678 1039 692 q 1075 649 1075 664 q 1060 611 1075 635 q 988 475 1051 597 q 918 342 925 353 q 864 242 903 318 q 756 54 767 60 l 754 53 q 751 53 753 53 q 615 147 742 53 q 528 207 533 207 q 503 132 526 207 q 474 54 481 58 q 429 40 471 53 q 385 30 422 39 q 328 15 347 21 q 269 3 282 3 q 257 7 261 3 q 236 75 249 15 q 100 675 200 247 q 82 771 90 715 l 78 806 l 110 801 q 234 778 146 796 q 335 754 322 760 q 350 728 346 750 q 360 617 354 706 q 374 485 371 485 q 408 622 378 485 q 446 781 439 764 q 471 796 453 796 q 544 783 490 796 q 553 782 547 783 q 599 758 590 772 q 617 624 610 740 l 618 607 q 628 468 626 481 q 643 463 633 444 q 649 479 646 469 q 664 521 654 501 q 692 597 667 529 q 724 678 717 665 q 750 747 725 681 q 779 818 775 814 z "},"X":{"ha":1144,"x_min":78,"x_max":1069,"o":"m 785 617 q 791 625 785 617 q 804 632 797 632 q 822 646 811 632 q 839 660 833 660 q 861 675 846 660 q 915 717 904 717 q 921 726 929 717 q 904 736 915 733 q 886 746 886 742 q 843 764 886 751 q 786 785 793 778 q 753 800 776 794 q 739 801 747 801 q 713 786 726 801 q 688 768 694 768 q 671 754 681 768 q 647 736 660 740 q 614 715 638 733 q 528 647 590 694 q 483 606 490 619 q 460 596 479 596 q 439 601 446 596 q 415 636 431 606 q 389 669 401 663 q 378 683 378 675 q 364 710 378 693 q 340 721 353 721 q 308 706 326 721 q 285 696 299 696 q 267 686 272 696 q 227 665 263 679 q 188 647 192 651 q 171 639 179 639 q 169 638 169 639 q 192 601 169 631 q 225 565 215 571 q 235 550 235 561 q 253 528 235 540 q 275 503 269 518 q 289 489 279 489 q 304 451 304 489 q 289 424 304 424 q 278 414 278 424 q 249 374 278 406 q 157 272 179 300 q 153 261 153 267 q 201 226 153 246 q 235 210 235 214 q 271 192 235 204 q 310 169 304 179 q 322 160 314 160 q 356 179 335 160 q 397 222 378 199 q 419 247 417 246 q 465 297 433 260 q 503 324 489 324 q 543 297 514 324 q 788 78 664 183 q 803 69 799 69 q 821 82 807 69 q 904 157 875 129 q 942 188 935 188 q 969 211 949 188 q 989 242 989 235 q 958 256 989 249 q 896 286 918 264 q 876 294 885 294 q 860 304 864 294 q 826 322 854 313 q 785 346 799 332 q 761 360 774 360 q 743 374 756 360 q 724 388 731 388 q 703 406 718 388 q 683 424 689 424 q 660 442 678 424 q 636 460 642 460 q 629 472 629 460 q 642 500 629 496 q 667 522 654 506 q 689 539 679 539 q 707 553 694 539 q 725 567 719 567 q 746 585 731 567 q 767 603 761 603 q 785 617 772 603 m 200 514 q 167 550 200 515 q 135 588 135 585 q 117 614 135 596 q 101 644 101 632 q 125 671 101 663 q 150 685 138 675 q 178 700 163 696 q 200 711 200 706 q 208 717 200 717 q 267 743 217 717 q 344 772 311 767 q 361 774 351 774 q 393 753 375 774 q 414 724 414 726 q 428 704 414 718 q 447 678 438 694 q 464 664 456 664 q 504 692 476 664 q 542 725 538 725 q 572 746 546 725 q 611 772 596 767 q 635 790 624 776 q 651 803 643 803 q 675 819 661 803 q 708 849 694 839 q 731 860 724 860 q 768 846 736 860 q 810 832 785 838 q 826 822 822 832 q 876 802 829 815 q 925 786 922 789 q 965 768 938 776 q 1000 738 1000 756 q 978 701 1000 722 q 929 664 947 674 q 896 638 906 650 q 876 624 885 624 q 858 610 869 624 q 840 596 847 596 q 822 581 833 596 q 806 567 811 567 q 783 553 800 567 q 718 499 746 518 q 701 475 701 486 q 713 461 701 465 q 744 439 725 457 q 800 396 789 396 q 817 386 804 396 q 851 365 826 376 q 883 353 875 353 q 896 343 892 353 q 926 325 899 335 q 961 308 942 319 q 1001 292 981 296 q 1031 281 1031 286 q 1047 269 1031 274 q 1068 254 1064 265 q 1069 246 1069 251 q 1064 226 1069 236 q 1051 217 1058 217 q 1014 184 1047 217 q 978 151 981 151 q 943 124 974 151 q 896 81 900 83 q 876 65 881 65 q 849 40 874 65 q 801 17 824 17 q 760 36 779 17 l 567 207 q 506 260 511 260 q 472 231 500 260 q 443 196 443 203 q 428 183 443 190 q 414 171 414 176 q 383 131 414 161 q 342 101 351 101 q 317 113 335 101 q 294 124 300 124 q 258 142 285 124 q 219 158 235 158 q 203 168 208 158 q 164 192 201 176 q 128 211 128 207 q 115 217 128 217 q 92 228 106 217 q 78 246 78 239 q 107 292 78 253 q 142 331 136 331 q 178 372 144 331 q 226 426 206 408 q 242 453 242 439 q 221 488 242 467 q 200 514 200 511 z "},"Y":{"ha":919,"x_min":76,"x_max":844,"o":"m 635 510 q 664 581 638 510 q 693 653 690 653 q 699 661 699 653 q 718 723 699 671 q 753 807 738 775 q 775 869 769 839 q 777 888 778 882 q 774 896 776 894 q 763 896 771 897 q 692 887 731 894 q 650 875 653 879 q 631 868 647 868 q 589 814 597 868 q 578 782 583 782 q 560 733 572 782 q 537 635 549 685 q 521 582 525 585 q 503 524 517 578 q 488 458 489 469 q 467 446 483 446 l 464 446 q 445 465 450 446 q 426 582 440 483 q 406 692 411 682 q 396 743 401 696 q 383 819 390 789 l 375 851 l 292 856 q 227 859 271 857 q 172 863 183 861 l 136 865 l 131 782 q 119 674 125 693 q 113 617 113 653 q 118 585 114 596 q 140 557 122 575 q 169 519 169 528 q 183 506 169 511 q 208 485 197 501 q 294 392 218 468 q 369 303 369 317 q 360 245 369 286 q 347 201 351 204 q 336 170 343 199 q 324 110 329 142 q 317 75 318 79 l 313 58 l 485 58 q 656 63 656 58 q 647 98 656 72 q 635 124 638 124 q 606 197 631 124 q 572 279 582 267 q 563 317 563 289 q 572 354 563 344 q 606 436 583 365 q 635 510 628 510 m 807 832 q 778 760 804 832 q 749 689 753 689 q 742 676 742 689 q 733 646 742 661 q 715 596 728 638 q 696 546 703 554 q 664 465 689 539 q 633 396 642 396 q 617 356 631 396 q 610 317 610 333 q 617 276 610 299 q 633 238 629 238 q 658 179 638 238 q 697 82 678 121 q 713 43 713 49 q 613 24 713 24 q 559 24 600 24 q 490 25 518 25 l 274 26 l 275 69 q 285 133 278 119 q 308 222 293 150 l 325 290 l 310 314 q 286 338 296 335 q 276 344 276 338 q 194 435 276 350 l 113 522 q 94 543 113 525 q 76 607 76 560 q 83 760 76 632 q 101 903 92 893 q 135 910 108 910 q 210 906 156 910 q 353 896 307 896 q 407 888 393 896 q 429 808 418 878 q 449 674 440 739 q 464 610 458 610 q 471 588 468 610 l 472 571 q 478 582 474 571 q 492 639 482 593 q 521 732 507 721 q 553 849 528 739 q 567 896 563 892 q 635 914 572 901 q 742 935 674 921 q 811 946 794 946 q 839 932 835 946 q 833 896 844 917 q 817 853 822 878 q 807 832 811 832 z "},"Z":{"ha":774,"x_min":78,"x_max":701,"o":"m 424 904 q 213 908 267 904 q 169 910 196 910 q 147 907 147 910 q 146 896 147 906 q 142 868 144 886 q 136 836 139 850 q 128 780 133 817 q 122 738 124 743 l 118 703 l 193 703 q 272 710 268 703 q 318 717 276 717 q 354 715 346 717 q 365 703 363 713 q 367 697 367 701 q 350 668 367 688 q 333 642 333 649 q 314 617 333 636 q 236 474 257 561 q 216 393 229 443 q 197 317 203 343 q 172 213 178 233 q 154 129 154 140 q 504 104 154 117 l 631 100 l 639 156 q 649 251 643 185 q 660 347 656 318 l 664 382 l 628 365 q 585 338 594 347 q 443 318 578 328 q 319 313 338 313 q 303 314 304 313 q 297 326 297 318 q 322 376 297 347 q 354 403 349 403 q 369 419 360 403 q 389 446 378 438 q 453 520 404 460 q 519 599 503 581 q 563 665 557 642 q 569 785 569 688 l 569 904 l 424 904 m 115 943 q 167 954 119 954 q 260 951 174 954 q 493 946 413 946 q 599 938 589 943 q 617 792 611 926 l 621 656 l 585 617 q 513 532 547 576 q 393 390 460 467 l 365 357 l 456 363 q 596 390 549 367 q 658 425 646 413 q 681 438 671 438 q 697 428 689 438 q 701 408 701 421 q 697 358 701 394 q 681 190 693 331 q 663 67 671 83 q 625 51 656 51 q 582 60 599 51 q 360 74 572 64 q 140 85 147 83 l 110 89 l 114 121 q 149 268 117 139 q 188 424 181 397 q 215 533 201 497 q 254 603 228 569 q 294 669 294 651 q 290 672 294 672 q 189 667 283 672 q 117 664 156 664 q 81 669 85 664 q 78 690 78 675 q 88 812 78 735 q 106 889 99 889 q 111 910 111 889 q 115 943 111 933 z "},"a":{"ha":846,"x_min":76,"x_max":771,"o":"m 371 571 q 339 582 346 582 q 224 426 328 582 l 119 269 l 146 246 q 167 226 150 242 q 202 194 183 211 q 236 164 221 178 q 304 103 300 104 l 306 103 q 385 114 310 103 l 460 126 l 464 174 q 474 229 468 219 q 489 238 478 238 q 510 222 506 238 q 514 207 511 218 q 520 179 517 196 q 526 151 524 163 l 540 99 l 608 96 q 629 95 617 96 q 646 94 642 94 q 676 108 676 94 q 664 150 676 119 q 650 210 650 183 q 660 263 650 232 q 675 320 661 269 q 701 412 689 371 q 719 465 714 453 q 726 486 726 479 q 713 508 726 497 q 658 542 699 518 l 589 582 l 586 543 q 574 500 585 504 l 572 500 q 489 524 558 500 q 371 571 419 549 m 558 626 q 568 628 561 628 q 683 572 585 628 q 753 529 736 543 q 771 500 771 515 q 761 465 771 492 q 729 360 756 451 q 694 246 711 297 q 688 208 688 225 q 699 169 688 185 q 716 121 706 160 q 726 67 726 82 q 716 55 726 57 q 665 53 706 53 l 619 53 l 517 56 l 506 78 q 488 94 493 100 q 409 77 481 89 q 311 65 338 65 q 270 82 293 65 q 181 160 247 99 q 128 208 153 185 q 90 247 103 232 q 76 265 76 263 q 193 450 76 275 q 290 591 265 558 q 325 624 314 624 q 408 599 343 624 q 538 551 529 551 q 544 563 542 551 q 549 600 549 575 q 558 626 549 624 m 422 293 q 449 325 449 322 q 415 351 449 328 q 379 374 382 374 q 347 347 374 374 q 321 314 321 319 l 360 289 l 394 267 l 422 293 m 321 376 q 378 424 374 424 q 447 379 388 424 q 506 328 506 335 q 455 272 506 319 q 394 224 404 224 q 361 240 385 224 q 303 276 358 242 q 271 311 271 296 q 321 376 271 331 z "},"b":{"ha":819,"x_min":75,"x_max":749,"o":"m 322 738 q 300 758 311 758 q 268 753 289 758 q 240 746 261 751 q 208 739 218 740 q 171 729 174 732 q 163 478 169 728 q 152 227 157 278 q 131 114 147 176 q 118 58 118 69 l 119 54 q 138 53 121 53 q 211 56 150 53 q 292 67 292 61 q 288 72 292 68 q 276 97 276 86 q 286 113 276 108 l 288 113 q 524 32 322 113 l 526 32 q 622 99 543 32 l 704 169 l 704 240 l 704 260 q 683 403 704 322 l 661 493 l 618 499 q 525 503 581 503 q 475 497 489 503 q 414 460 461 492 q 333 417 351 417 q 315 451 315 417 q 318 493 315 460 q 331 632 325 549 q 332 682 332 653 q 322 738 332 718 m 265 792 q 313 800 299 800 q 336 792 328 800 q 356 760 344 783 q 374 682 374 725 q 363 543 374 650 q 356 472 356 490 q 396 494 356 464 q 408 504 404 501 l 458 542 l 569 540 q 665 535 646 538 q 693 522 683 532 q 706 494 706 507 q 726 392 706 486 q 749 231 749 301 l 749 160 l 721 135 q 540 -12 563 -12 q 450 17 521 -12 q 378 40 388 40 q 365 33 372 40 q 335 22 360 24 q 215 17 311 19 l 75 14 l 75 39 q 97 142 75 65 l 119 219 l 125 486 q 136 758 129 751 q 182 774 140 763 q 265 792 226 782 m 510 279 q 506 318 508 308 q 492 328 503 328 q 461 321 485 328 q 431 309 439 314 q 424 294 424 304 q 432 263 424 286 q 449 219 444 222 q 482 224 453 215 l 513 231 l 510 279 m 446 358 q 521 379 506 379 q 543 361 539 379 q 547 288 547 343 l 547 279 l 547 196 l 525 192 q 446 178 456 178 q 424 183 429 178 q 397 245 415 190 q 379 319 379 300 q 446 358 379 336 z "},"c":{"ha":576,"x_min":75,"x_max":504,"o":"m 403 494 q 321 511 340 511 q 243 481 303 511 l 179 447 q 117 319 138 361 l 122 260 q 138 192 126 207 q 228 117 149 176 l 297 64 l 363 68 q 431 78 417 72 q 454 108 444 85 q 458 126 458 118 q 443 169 458 139 q 421 210 422 210 q 394 192 418 210 q 361 174 371 174 q 301 214 351 174 l 253 256 l 256 314 q 265 381 258 374 q 278 383 268 383 q 344 371 292 383 q 376 363 358 368 q 402 356 393 358 q 414 354 411 354 l 415 354 q 438 418 415 358 l 460 479 l 403 494 m 294 554 q 315 558 299 561 q 479 517 426 531 q 504 499 504 510 q 503 486 504 492 q 473 397 500 467 q 439 321 446 328 q 424 318 436 318 q 314 335 376 318 q 306 336 310 336 q 297 304 297 336 q 303 269 297 278 q 343 233 308 260 l 363 217 l 389 238 q 426 258 414 258 q 475 200 446 258 q 504 129 504 144 q 479 75 504 118 l 456 32 l 369 28 l 283 22 l 210 78 q 101 169 115 151 q 83 243 89 188 q 83 250 83 247 l 75 325 q 113 401 88 350 q 150 478 138 453 l 219 514 q 294 554 285 547 z "},"d":{"ha":743,"x_min":75,"x_max":669,"o":"m 624 619 l 625 621 q 625 624 625 622 q 593 631 625 631 q 486 626 565 631 l 433 624 l 433 453 l 414 453 q 358 464 389 453 q 264 492 307 479 l 206 507 q 118 331 176 447 l 133 268 q 165 152 156 172 q 208 103 174 132 l 251 65 l 319 71 q 401 75 379 75 q 428 71 422 75 q 442 51 435 67 q 457 19 456 24 q 461 18 457 18 q 537 33 479 18 q 601 53 594 47 q 585 83 607 58 l 561 107 l 569 186 q 578 262 572 207 q 588 338 585 317 q 610 510 607 483 q 615 558 613 531 q 620 601 618 586 q 624 619 622 617 m 399 657 q 460 663 403 660 q 578 669 518 667 q 643 674 638 672 q 661 663 656 676 q 663 651 663 661 q 624 303 663 610 q 614 231 619 271 q 606 168 608 190 q 603 139 603 146 q 636 86 603 124 q 669 38 669 51 q 663 26 669 31 q 569 -1 654 21 q 458 -25 483 -22 q 443 -26 453 -26 q 426 -18 432 -26 q 410 25 421 -10 q 388 38 406 38 q 313 31 378 38 q 286 28 303 31 q 263 26 269 26 q 231 33 242 26 q 194 63 219 39 q 169 83 188 69 l 153 99 q 127 133 138 111 q 113 173 117 154 q 101 225 108 192 q 89 276 94 258 l 75 335 l 128 438 q 196 544 181 543 l 197 544 q 301 521 213 544 q 394 496 389 496 q 396 507 396 496 q 393 556 396 517 q 390 615 390 596 q 399 657 390 650 m 372 353 q 329 376 336 376 q 318 361 325 376 q 275 232 275 249 q 299 217 275 217 q 342 206 308 217 q 396 192 388 192 q 410 201 407 192 q 418 240 414 210 q 426 280 421 257 q 431 304 431 303 q 414 328 433 314 q 372 353 397 336 m 274 356 q 299 419 292 408 q 314 431 306 431 q 394 386 322 431 q 458 344 446 354 q 469 319 469 333 q 458 224 469 288 q 439 154 446 161 q 424 150 435 150 q 331 168 401 150 q 226 201 231 194 q 225 206 226 203 q 239 258 225 221 q 274 356 253 296 z "},"e":{"ha":715,"x_min":75,"x_max":640,"o":"m 418 503 q 310 508 406 504 l 288 508 q 257 505 265 508 q 240 489 249 501 q 225 464 225 468 q 207 431 225 456 q 146 326 171 369 q 125 290 128 293 q 122 281 122 288 q 139 226 122 249 q 154 192 146 217 q 165 163 163 168 q 188 106 172 150 q 214 69 199 76 q 307 54 229 63 q 332 53 313 53 q 418 56 364 53 q 513 65 472 60 q 554 72 554 69 q 543 114 554 81 q 542 119 543 115 q 521 150 533 146 l 507 151 q 426 142 497 151 q 360 135 385 135 q 342 138 344 135 q 311 178 329 147 q 293 218 293 208 q 315 232 293 226 q 371 241 338 238 q 408 244 404 244 q 514 260 411 244 q 589 282 589 269 q 585 290 589 286 q 540 369 578 300 q 471 490 482 479 q 425 503 461 500 q 418 503 421 503 m 222 538 q 271 553 232 553 q 402 542 307 551 q 500 531 497 533 q 575 392 510 519 q 640 257 640 264 q 626 240 640 244 q 553 226 613 235 q 388 201 417 207 q 358 188 358 196 q 389 179 358 179 q 489 189 429 179 q 533 193 514 193 q 547 192 544 193 q 582 119 558 188 q 601 51 601 58 q 597 40 601 44 q 457 19 586 29 q 338 13 383 13 q 264 19 299 13 q 185 38 199 31 q 160 72 171 44 q 147 102 157 79 q 132 135 136 125 q 118 176 118 168 q 111 190 118 186 q 97 227 108 193 q 82 264 85 261 q 75 275 75 268 q 136 389 75 281 q 222 538 197 497 m 386 331 q 384 334 386 332 q 377 338 382 336 q 366 342 372 340 q 351 346 360 343 l 313 357 l 308 336 q 307 311 304 317 l 311 311 q 353 319 322 311 q 386 331 383 326 m 285 394 q 297 400 289 400 q 458 357 317 400 q 489 333 488 347 q 489 329 489 332 l 490 326 q 469 313 490 319 q 340 274 449 306 q 274 260 293 260 q 258 265 263 260 l 258 267 q 257 271 257 269 q 268 339 257 290 q 285 394 279 388 z "},"f":{"ha":589,"x_min":78,"x_max":514,"o":"m 436 617 q 403 624 406 624 q 396 611 396 624 q 419 590 396 590 q 439 592 431 590 q 467 603 467 596 q 436 617 467 608 m 463 801 q 447 817 458 817 q 424 811 439 817 q 388 799 422 811 q 328 781 353 788 l 249 756 l 243 661 q 232 557 238 565 q 194 550 222 546 q 176 552 182 553 q 167 549 169 551 q 163 538 165 546 q 160 508 160 526 q 160 494 160 504 q 161 481 161 485 l 163 442 l 194 438 q 232 424 228 432 q 262 351 244 400 q 279 288 279 301 q 263 275 279 275 q 192 292 246 275 q 135 307 138 307 l 133 307 q 210 114 126 303 q 233 75 225 75 q 314 142 239 75 l 389 206 l 385 256 q 375 321 382 283 q 365 392 368 358 l 364 435 l 408 439 q 457 447 454 444 q 465 506 460 450 q 468 543 468 539 q 463 558 468 558 q 456 557 458 558 q 404 547 444 553 q 383 546 396 546 q 365 558 369 546 q 357 617 361 569 q 356 644 356 628 q 374 671 356 671 q 411 664 383 671 q 465 647 458 651 l 468 647 q 474 667 474 647 q 471 714 474 672 q 463 801 465 792 m 446 860 q 478 865 464 868 q 494 844 489 864 q 510 735 500 824 q 514 650 514 693 q 497 442 514 575 l 492 406 l 447 404 l 401 401 l 406 379 q 431 206 431 235 q 332 104 431 192 q 218 17 233 17 q 125 217 208 17 q 113 244 124 219 q 96 286 103 269 q 78 343 78 331 q 94 358 78 358 q 164 342 114 358 q 221 328 210 328 l 222 328 q 213 365 225 331 l 200 403 l 168 403 q 126 409 135 403 q 117 444 117 415 q 119 496 117 451 q 128 583 125 576 q 167 589 133 589 l 203 589 l 203 640 q 208 738 207 726 l 213 783 l 321 818 q 446 860 436 856 z "},"g":{"ha":665,"x_min":75,"x_max":596,"o":"m 308 168 q 319 168 314 163 q 314 174 324 174 q 308 168 303 174 m 532 564 q 503 573 524 567 q 479 581 483 579 q 471 583 476 581 q 463 585 465 585 q 439 539 454 585 q 418 532 436 532 q 386 535 414 532 q 272 544 353 539 q 228 547 233 547 q 193 535 206 547 q 140 464 181 522 q 108 407 108 419 q 110 397 108 404 q 115 381 113 390 q 119 365 118 372 q 139 294 131 322 l 151 254 l 206 239 q 299 211 258 224 q 340 203 324 203 q 375 208 344 203 q 410 214 406 214 q 429 204 429 214 q 388 161 429 190 l 346 132 l 296 138 q 215 147 240 143 l 186 151 l 176 90 q 171 36 171 61 q 172 26 171 28 q 194 25 174 25 q 307 29 236 25 l 439 38 l 464 67 q 490 97 469 74 q 518 129 510 119 l 549 161 l 554 251 q 560 447 560 318 l 560 554 l 532 564 m 417 589 q 425 619 422 615 q 439 624 428 624 q 532 600 464 624 l 596 576 l 596 469 q 587 266 594 379 q 574 142 579 153 q 525 83 569 132 q 450 10 467 17 q 338 -1 433 3 q 183 -10 201 -7 q 164 -11 176 -11 q 135 -4 142 -11 q 133 7 133 -3 q 144 103 133 38 q 164 178 156 169 q 183 182 168 182 q 211 179 189 182 q 272 174 250 174 q 282 176 282 174 q 231 196 282 182 q 142 222 203 204 q 118 249 128 226 q 88 351 108 271 q 75 411 75 401 q 85 445 75 428 q 138 517 96 463 l 188 583 l 263 578 q 375 569 364 571 l 413 565 l 417 589 m 318 386 q 261 417 272 417 q 249 386 249 417 q 244 329 249 350 q 243 313 243 322 q 268 299 243 303 q 324 288 313 290 l 349 282 q 353 283 351 282 q 357 288 356 285 q 358 295 358 292 q 359 306 358 299 q 361 321 360 314 l 365 356 l 318 386 m 225 461 q 236 465 229 465 q 268 455 247 465 q 310 431 289 444 q 333 415 331 417 q 372 391 340 414 q 403 363 403 368 q 388 267 392 289 q 383 256 385 258 q 372 253 381 253 q 340 256 371 253 q 211 279 225 265 q 210 294 210 281 q 215 391 210 328 q 225 461 221 454 z "},"h":{"ha":644,"x_min":72,"x_max":575,"o":"m 131 646 l 122 646 q 111 632 111 646 q 129 510 111 628 q 139 397 139 447 q 128 224 139 336 q 121 158 125 201 q 117 107 117 114 l 113 58 l 189 58 l 217 58 q 253 63 244 58 q 263 82 263 67 q 253 153 263 92 q 238 276 238 240 q 253 336 238 310 q 278 378 269 372 q 286 379 279 379 q 339 372 304 379 q 382 357 374 364 q 389 343 389 353 q 374 281 389 331 l 351 213 l 363 139 q 382 68 374 68 l 385 68 q 472 88 394 72 l 547 103 l 544 218 q 538 396 542 371 q 514 443 535 421 q 463 489 483 474 l 436 510 l 344 456 q 240 403 251 403 q 228 422 228 403 q 231 458 228 425 q 246 571 235 510 q 253 626 253 613 q 201 640 253 633 q 131 646 150 646 m 76 631 q 72 660 72 650 q 99 681 72 681 q 124 679 114 681 q 218 669 150 675 q 285 657 278 664 q 286 643 286 656 q 267 479 286 583 q 268 453 263 453 q 353 499 278 453 q 443 546 432 546 q 513 490 454 546 l 571 435 l 572 257 l 575 78 l 525 65 q 358 31 386 31 q 328 143 343 31 q 322 203 322 181 q 331 254 322 222 q 344 317 344 307 q 321 340 344 335 q 306 343 310 343 q 276 306 288 343 q 275 286 275 301 q 296 96 275 197 q 303 51 303 64 q 290 29 303 35 q 240 24 276 24 q 217 24 233 24 q 189 25 200 25 l 88 26 l 89 101 q 97 296 93 235 q 100 388 100 326 q 76 631 100 510 z "},"i":{"ha":367,"x_min":72,"x_max":296,"o":"m 247 372 q 235 383 247 381 q 178 392 224 386 l 107 400 l 111 381 q 129 235 129 292 q 126 160 129 221 q 124 81 124 85 q 129 53 124 53 l 131 53 q 201 74 132 53 l 264 90 l 258 111 q 240 179 256 126 q 232 232 232 213 q 238 290 232 256 q 247 372 247 356 m 243 529 q 236 558 246 551 q 189 581 226 565 l 151 594 l 129 550 q 111 506 111 514 q 119 486 111 499 q 136 467 132 467 q 190 488 139 467 q 232 508 224 501 q 243 529 240 515 m 121 606 q 144 632 139 632 q 185 618 149 632 q 242 596 236 599 q 279 518 279 582 q 267 487 279 496 q 192 451 256 478 q 161 433 161 439 q 232 419 161 428 q 286 403 282 414 l 286 400 q 288 396 288 397 q 278 333 288 378 q 267 246 267 275 q 283 144 267 208 q 296 79 296 99 q 294 71 296 72 q 200 39 288 64 q 96 14 113 14 l 94 14 q 88 61 88 17 q 90 147 88 69 q 93 235 93 219 q 83 338 93 293 q 72 413 72 397 q 86 436 72 432 q 100 446 100 440 q 86 472 100 449 q 72 507 72 493 q 121 606 72 529 z "},"j":{"ha":511,"x_min":75,"x_max":442,"o":"m 375 506 q 301 510 363 510 q 242 503 256 510 q 229 465 229 497 q 235 393 229 457 q 242 254 242 324 l 242 238 q 225 165 240 165 q 189 201 214 165 q 157 238 161 238 q 144 210 154 238 q 125 156 135 183 l 115 126 q 182 50 114 118 l 253 -18 l 303 18 q 331 38 313 25 q 362 60 349 51 q 382 74 375 69 l 408 90 l 404 219 q 392 457 397 411 q 375 506 388 503 m 311 700 q 264 707 265 707 l 261 707 q 232 663 251 707 l 211 615 l 232 599 q 297 582 250 583 q 364 586 344 582 l 386 590 l 386 639 l 386 657 q 378 688 386 682 q 326 699 369 694 q 311 700 317 700 m 206 692 l 229 740 l 290 735 q 385 722 353 729 l 418 714 l 419 643 l 419 614 q 414 563 419 569 q 343 551 407 553 l 282 550 l 347 543 q 421 528 413 536 q 432 338 426 522 q 440 119 438 139 q 442 100 442 111 q 410 53 442 75 q 369 24 408 51 q 291 -30 329 -4 q 249 -56 253 -56 q 158 25 244 -56 l 75 107 l 88 149 q 125 258 88 150 q 149 294 136 294 q 181 265 160 294 q 207 246 201 236 q 214 282 214 256 q 207 342 214 304 q 196 438 201 365 l 192 499 l 215 525 l 240 550 l 208 574 q 179 615 179 597 q 206 692 179 632 z "},"k":{"ha":701,"x_min":72,"x_max":629,"o":"m 299 633 l 303 682 l 250 681 q 172 668 172 679 q 170 650 172 667 q 165 602 168 633 q 158 542 161 571 q 110 68 110 108 q 192 46 110 54 q 271 38 269 38 q 296 47 290 38 q 301 83 301 56 l 301 126 q 315 222 301 222 q 326 217 321 222 q 338 213 338 206 q 494 28 469 28 q 541 77 501 28 q 581 136 581 126 q 465 189 581 143 q 351 246 351 235 q 393 267 351 257 l 467 285 q 564 303 542 303 q 583 314 583 303 q 568 389 583 331 q 546 454 553 447 q 511 440 539 461 q 412 370 496 428 q 311 297 328 313 q 275 274 288 274 q 260 303 260 274 q 283 510 260 343 q 299 633 294 597 m 165 704 q 261 710 178 707 l 285 710 q 335 697 335 710 q 319 519 335 679 q 303 353 303 360 q 307 346 303 346 q 511 481 317 346 q 553 504 547 504 q 610 368 571 504 q 618 342 615 351 q 626 296 626 313 q 625 288 626 289 q 525 261 618 281 q 436 238 436 240 q 452 226 436 233 q 490 213 468 219 q 513 206 511 207 q 529 199 514 204 q 560 188 544 194 q 592 175 575 182 q 619 161 608 168 q 629 150 629 154 q 571 60 629 138 q 501 -18 513 -17 l 500 -18 q 461 14 486 -18 q 414 72 439 43 q 374 118 389 101 q 358 132 358 135 q 351 138 358 128 l 350 140 q 338 154 340 154 q 331 125 331 154 q 333 82 331 118 q 336 36 336 43 q 330 8 336 15 q 308 0 324 0 q 276 3 304 0 q 74 35 79 24 l 72 39 q 72 44 72 42 q 117 485 72 81 l 140 700 l 165 704 z "},"l":{"ha":364,"x_min":69,"x_max":294,"o":"m 183 614 q 111 624 118 624 q 99 300 99 624 l 99 51 l 179 56 q 263 67 263 61 q 257 135 263 71 q 249 204 254 157 q 242 263 243 251 q 238 333 238 292 q 242 431 238 376 q 246 488 243 453 q 250 545 249 524 q 251 574 251 567 l 251 606 l 183 614 m 75 656 q 113 657 79 663 q 156 651 121 656 q 213 643 192 646 l 281 635 l 283 607 l 283 594 q 276 451 283 546 q 272 349 272 386 q 282 213 272 296 q 294 65 286 178 l 294 33 l 193 25 q 89 17 104 17 q 83 17 86 17 l 79 18 q 69 336 69 22 q 75 656 69 651 z "},"m":{"ha":882,"x_min":71,"x_max":813,"o":"m 463 410 q 403 451 411 451 q 321 408 396 451 q 244 367 247 367 q 235 383 235 367 q 242 414 235 400 q 251 443 254 440 l 247 443 q 176 437 231 443 q 119 428 122 431 q 108 260 117 425 q 100 82 100 94 l 97 58 l 269 58 l 265 79 q 257 204 263 90 l 251 310 l 313 310 q 381 300 371 310 q 389 172 389 292 l 389 51 l 457 51 l 468 51 q 514 54 503 51 q 525 67 525 57 q 515 103 525 74 q 472 253 493 172 q 467 285 467 271 q 480 305 467 299 q 536 319 493 311 q 586 328 575 328 q 601 322 596 328 q 622 235 610 314 q 647 81 639 114 q 663 46 654 49 l 665 46 q 724 57 674 46 l 772 71 l 776 224 l 779 378 q 701 416 779 379 q 619 453 624 453 q 576 410 614 453 q 526 367 539 367 q 463 410 513 367 m 351 464 q 410 489 397 489 q 419 486 414 489 q 431 476 422 483 q 453 459 440 469 q 478 440 467 449 l 524 404 l 565 446 q 617 489 608 489 q 719 444 628 489 l 813 400 l 813 303 q 807 125 813 214 l 803 44 l 774 38 q 658 14 682 15 l 622 13 l 618 44 q 599 165 610 106 q 580 259 589 224 q 567 294 571 294 q 529 288 557 294 q 501 272 501 281 q 506 257 501 267 q 564 40 561 75 l 565 19 l 469 17 l 432 17 q 367 21 371 17 q 356 150 361 26 l 351 274 l 282 274 l 286 240 q 301 58 301 103 q 300 40 301 43 q 246 32 297 32 l 183 32 l 71 33 l 74 176 q 81 388 76 331 l 85 456 l 132 465 q 238 478 179 472 q 279 481 276 481 q 300 472 296 481 q 296 446 306 460 q 293 438 294 442 q 292 433 292 435 l 292 431 q 351 464 294 431 z "},"n":{"ha":679,"x_min":72,"x_max":610,"o":"m 279 511 q 277 520 279 517 q 274 522 275 524 q 218 515 264 522 q 121 494 121 503 q 124 486 121 492 q 146 357 146 401 q 131 235 146 322 q 110 92 110 119 q 181 81 110 86 q 285 75 253 75 l 289 75 q 261 267 296 82 q 253 321 253 310 q 261 336 253 329 q 310 358 275 346 q 358 371 346 371 l 361 371 q 379 149 379 363 l 379 61 l 469 53 q 560 46 542 46 l 563 46 q 569 218 564 47 q 572 340 572 335 q 561 401 572 392 q 481 468 524 438 q 429 499 438 499 l 428 499 q 387 473 426 499 q 306 423 347 447 q 258 399 264 399 l 257 399 q 251 414 251 403 q 265 466 251 429 q 279 511 279 503 m 182 544 q 278 551 199 547 l 292 551 q 322 538 322 551 q 311 496 322 526 q 308 487 310 493 q 305 478 306 481 q 302 471 304 475 q 301 466 300 467 q 301 464 301 465 q 367 500 304 464 q 439 539 432 539 q 499 496 449 539 q 522 476 503 492 q 560 445 540 461 q 592 419 579 429 l 610 404 l 601 213 q 589 15 594 21 q 569 14 588 14 q 445 21 526 14 q 358 33 364 28 q 349 113 353 39 q 343 259 346 188 q 338 331 340 331 q 308 322 336 331 q 289 311 292 317 q 289 292 286 306 q 329 57 329 99 q 328 46 329 49 q 322 40 328 43 q 301 38 315 38 q 192 44 286 38 q 94 57 115 51 q 72 79 72 63 q 74 93 72 88 q 99 244 76 108 l 118 369 l 99 444 q 82 522 82 504 q 165 542 82 532 q 182 544 176 543 z "},"o":{"ha":663,"x_min":75,"x_max":589,"o":"m 482 606 q 335 610 467 610 l 204 610 l 204 557 l 321 557 q 467 550 425 557 l 497 544 l 497 572 q 482 606 497 600 m 208 639 q 300 643 225 643 q 501 635 454 643 q 522 624 518 632 q 529 581 526 617 q 531 542 531 567 q 529 517 531 521 q 506 503 525 503 q 485 511 493 503 q 324 526 469 526 q 256 524 294 526 q 196 521 208 521 q 178 522 181 521 q 168 575 168 528 q 175 624 168 613 q 208 639 181 632 m 500 415 q 478 428 497 426 q 344 431 458 431 l 192 431 l 151 307 q 111 176 111 183 q 160 122 111 168 l 207 75 l 286 67 q 436 56 404 56 q 483 64 472 56 q 526 118 496 72 q 553 174 553 158 q 500 415 553 217 m 161 444 l 168 460 l 526 460 l 529 444 q 565 285 540 404 q 571 255 567 275 q 578 219 575 235 q 583 193 581 203 q 589 157 589 160 q 581 139 589 147 q 569 121 569 128 q 540 76 569 111 q 496 32 511 42 q 460 21 479 21 q 426 24 454 21 q 289 35 357 31 l 197 39 l 136 100 q 75 174 75 161 q 108 285 75 182 q 161 444 140 388 m 356 306 q 303 314 304 314 q 294 315 299 315 q 285 308 288 315 q 279 272 282 300 q 271 211 274 218 q 272 197 268 200 q 296 194 276 194 q 361 188 326 194 q 403 183 400 181 q 404 188 404 185 q 403 200 404 192 q 400 221 401 208 q 397 243 399 233 l 389 300 l 356 306 m 258 344 q 285 350 263 354 q 414 324 407 331 q 431 263 422 315 q 439 174 439 210 q 435 149 439 150 l 429 149 q 333 157 406 149 q 246 171 260 165 q 234 179 236 174 q 235 201 232 185 q 247 281 239 222 q 258 344 256 339 z "},"p":{"ha":676,"x_min":69,"x_max":603,"o":"m 213 603 q 144 624 151 621 l 136 626 q 125 572 129 626 q 103 140 119 503 l 100 51 l 211 51 q 321 58 321 51 q 305 119 321 61 q 289 186 289 178 q 303 193 289 193 q 336 183 313 193 q 367 174 360 174 q 393 164 376 174 q 431 151 418 151 q 496 188 450 151 q 546 236 538 221 q 563 314 554 251 q 564 336 564 322 q 536 400 564 357 q 500 453 511 442 q 480 482 499 454 q 442 535 461 510 q 417 560 422 560 q 301 513 404 560 q 267 504 278 501 q 256 519 256 507 q 256 528 256 524 q 258 542 257 533 q 261 560 260 551 l 265 586 l 213 603 m 96 651 q 110 667 101 667 q 271 618 136 667 q 299 596 297 603 q 297 576 299 585 l 294 547 l 321 558 q 385 586 351 571 q 428 600 415 600 l 432 600 q 507 500 438 597 q 601 363 576 403 l 603 360 q 603 354 603 357 q 593 283 603 335 q 572 213 582 226 q 511 156 563 199 q 442 110 456 110 q 429 114 436 110 q 406 124 410 124 q 368 138 383 129 q 338 142 338 150 q 346 97 338 125 q 360 38 356 65 l 361 19 l 221 17 l 174 17 q 72 25 78 17 q 69 63 69 31 q 79 335 69 139 q 96 651 94 644 m 407 389 q 400 422 404 414 q 378 429 396 429 q 342 426 372 429 l 314 424 l 314 389 q 310 332 314 350 q 313 310 304 310 q 365 331 318 310 l 411 351 l 407 389 m 347 460 q 376 466 360 463 q 401 472 392 469 q 411 474 410 474 l 413 474 q 438 392 433 474 q 438 372 438 383 q 439 356 439 360 q 430 324 439 332 q 378 299 421 317 q 350 287 369 294 q 326 276 331 279 q 289 268 301 263 q 276 299 276 269 q 278 349 276 326 q 286 438 281 426 q 347 460 294 449 z "},"q":{"ha":657,"x_min":69,"x_max":585,"o":"m 461 607 q 375 622 389 622 q 357 613 360 622 q 351 596 353 600 q 342 587 349 592 q 322 581 335 582 q 288 579 310 579 q 258 580 281 579 q 221 581 236 581 l 101 583 l 106 542 q 118 353 111 500 q 128 203 126 204 l 131 203 q 271 231 149 203 q 344 244 333 244 q 361 224 361 244 q 358 186 361 219 q 349 103 353 122 l 344 81 l 446 81 q 547 89 547 81 q 545 106 547 92 q 540 148 543 119 q 533 199 536 176 q 514 406 519 292 q 506 556 508 539 l 500 599 l 461 607 m 325 635 q 328 646 328 643 q 333 653 329 649 q 340 658 336 657 q 350 658 343 658 q 435 646 367 658 q 522 624 506 633 q 539 592 539 615 q 549 394 539 533 q 565 213 558 256 q 579 101 569 189 l 585 54 l 529 50 q 396 44 468 44 l 376 44 q 324 50 336 44 q 313 78 313 56 q 318 138 313 85 q 322 201 322 179 q 314 206 322 206 q 288 202 306 206 q 252 194 269 199 q 205 182 235 190 q 154 169 175 174 q 113 163 126 163 q 103 164 104 163 q 89 285 97 169 q 74 499 81 399 q 69 572 69 549 q 75 608 69 600 q 122 617 81 617 q 200 614 131 617 l 317 608 l 325 635 m 311 435 q 277 451 311 442 q 232 460 243 460 q 222 420 226 460 q 218 344 218 381 q 221 322 218 326 q 238 314 224 317 q 269 306 267 307 q 279 307 276 303 q 285 329 282 311 q 300 390 289 350 q 311 435 311 429 m 193 490 q 208 503 197 503 q 251 493 215 503 q 303 478 278 485 q 335 465 328 471 q 346 447 346 457 q 335 390 346 439 q 314 300 317 314 q 300 269 310 274 l 296 269 q 240 280 279 269 q 190 297 200 290 q 182 335 182 303 q 185 390 182 343 q 193 490 189 472 z "},"r":{"ha":604,"x_min":71,"x_max":529,"o":"m 224 503 q 225 532 225 515 q 218 551 225 551 l 217 551 q 154 547 211 550 l 101 544 l 106 443 q 110 331 107 413 q 114 221 113 249 l 119 100 l 167 106 q 258 117 238 113 l 301 125 l 292 168 q 278 216 285 197 q 265 265 272 235 l 254 310 l 299 353 q 358 407 343 396 q 389 418 374 418 q 436 410 403 418 q 464 403 449 406 q 488 397 479 400 l 496 396 q 497 400 497 397 q 485 513 497 413 l 481 546 l 328 546 l 292 499 q 235 444 250 444 q 222 479 222 444 q 223 490 222 482 q 224 503 224 499 m 158 582 q 190 585 172 583 q 217 587 207 586 q 232 588 226 588 q 249 585 240 588 q 261 550 261 581 l 261 521 q 315 582 297 563 l 408 582 q 508 572 499 582 q 522 496 514 565 q 529 386 529 426 q 526 365 529 368 q 515 364 525 364 q 453 372 492 364 l 385 385 l 339 343 q 332 336 336 340 q 299 285 300 301 q 321 193 299 271 q 339 117 339 131 q 329 97 339 103 q 292 88 319 92 q 118 68 172 68 q 93 72 97 68 q 79 247 88 78 q 71 515 71 415 q 74 569 71 567 q 158 582 81 576 z "},"s":{"ha":553,"x_min":74,"x_max":478,"o":"m 411 500 q 353 519 407 507 q 283 531 299 531 q 228 496 269 531 q 176 429 186 461 q 168 385 168 400 q 189 336 168 365 q 214 302 196 328 q 239 267 232 276 q 267 217 267 229 q 230 183 267 207 q 179 158 193 158 q 135 193 167 158 l 100 226 l 106 192 q 110 108 110 163 l 110 58 l 181 58 q 249 62 232 58 q 303 85 267 65 q 350 115 338 103 q 379 156 363 126 l 403 200 l 389 233 q 328 296 376 265 q 281 336 281 325 q 311 382 281 346 l 342 419 l 390 414 q 422 411 421 411 q 438 418 438 411 q 436 422 438 421 q 425 460 433 428 q 411 500 417 493 m 217 531 q 226 538 219 533 q 234 544 232 543 q 241 549 236 546 q 248 554 246 553 q 254 558 250 556 q 260 560 258 560 q 266 563 263 561 q 273 564 269 564 q 281 564 276 564 q 360 553 296 564 q 431 530 417 543 q 461 457 444 517 q 478 382 478 400 q 449 374 478 374 q 386 382 414 374 q 349 376 358 390 q 331 344 331 354 q 361 315 331 336 q 419 246 397 293 l 440 200 l 413 146 q 378 94 390 106 q 319 58 367 82 l 256 26 q 169 30 226 28 q 82 32 111 32 l 78 57 q 74 182 74 78 q 86 279 74 279 q 138 238 96 279 q 186 194 181 194 q 210 208 190 194 l 226 222 q 178 293 210 246 q 129 364 146 340 l 140 421 q 158 479 150 467 q 217 531 167 492 z "},"t":{"ha":567,"x_min":75,"x_max":494,"o":"m 457 251 q 442 244 450 251 q 426 238 433 238 q 383 222 417 238 q 346 210 351 210 q 329 222 333 210 q 322 274 325 235 q 319 318 319 307 q 322 340 319 335 q 360 343 328 349 q 379 342 368 342 q 394 360 394 342 q 390 406 394 375 l 386 438 l 356 438 q 318 447 325 438 q 315 458 315 450 q 328 539 315 481 q 342 622 342 619 q 271 639 342 625 l 204 651 l 199 561 q 188 464 193 469 q 178 460 183 460 q 129 476 171 460 q 125 478 128 478 q 113 435 117 478 q 110 400 110 404 q 119 379 110 383 q 158 372 128 375 l 199 369 l 203 310 q 208 161 204 286 l 208 75 l 279 78 q 344 81 297 79 q 408 85 392 83 l 467 89 l 467 171 q 457 251 467 251 m 165 636 q 189 686 165 686 l 194 686 q 240 678 200 683 q 374 647 360 661 q 375 638 375 646 q 365 561 375 617 q 356 492 356 514 q 363 472 356 476 q 389 467 369 467 q 413 460 408 467 q 425 394 417 453 q 433 314 433 335 q 413 304 433 304 q 390 306 399 304 l 351 311 l 356 283 q 363 253 361 253 q 411 269 364 253 q 476 288 460 288 l 494 288 l 494 174 q 492 74 494 89 q 479 56 490 58 q 319 50 457 53 l 176 49 l 174 189 q 164 335 168 331 q 121 344 163 336 q 76 354 79 351 q 75 381 75 356 q 76 438 75 415 q 84 506 79 489 q 101 522 89 522 q 129 515 111 522 l 157 503 l 161 551 q 165 636 165 590 z "},"u":{"ha":672,"x_min":72,"x_max":597,"o":"m 475 261 q 490 374 475 267 q 504 488 504 481 q 432 496 504 496 l 361 496 l 361 393 l 361 360 q 352 285 361 299 q 294 249 343 271 q 254 233 264 233 q 240 264 240 233 q 244 332 240 286 q 247 364 244 338 q 252 413 250 390 q 257 465 254 435 q 260 506 260 494 q 260 524 261 518 q 186 517 258 522 q 113 507 113 508 q 119 410 113 501 q 132 229 125 318 l 139 140 q 143 127 139 131 q 163 124 147 124 q 226 117 189 124 l 268 108 l 306 149 q 358 188 340 188 q 369 167 369 188 l 369 158 l 367 133 l 454 125 q 542 119 535 119 l 546 119 q 511 182 547 121 q 475 261 475 244 m 111 542 q 246 550 169 550 q 290 544 289 550 q 292 529 292 543 q 285 410 292 493 q 278 289 278 315 q 294 286 278 279 q 298 288 296 288 q 301 289 300 289 q 320 304 317 294 q 328 361 324 314 q 332 475 332 415 q 344 526 332 524 q 368 528 347 528 q 447 525 386 528 q 533 513 524 521 q 540 494 540 506 q 533 446 540 483 q 525 388 531 431 q 517 331 519 346 l 506 263 l 528 224 q 557 174 551 179 q 583 129 568 160 q 597 89 597 99 q 578 81 597 81 q 528 83 575 81 q 422 96 457 89 q 364 101 396 101 q 333 113 340 101 q 325 117 329 119 q 308 101 321 115 l 288 79 l 215 83 q 127 96 143 89 q 107 135 111 103 q 76 479 99 192 l 72 538 l 111 542 z "},"v":{"ha":653,"x_min":75,"x_max":579,"o":"m 243 456 l 239 499 l 175 501 q 151 502 167 501 q 131 503 136 503 l 113 501 l 114 494 q 118 474 115 488 q 124 449 121 460 q 150 324 132 413 q 174 210 168 235 q 193 114 185 168 l 200 65 l 296 65 l 332 124 q 364 175 343 142 q 389 214 385 208 q 424 272 393 221 q 482 368 454 324 q 518 424 510 413 q 531 447 524 429 l 531 449 q 532 451 532 450 q 514 468 532 461 q 460 483 496 475 q 419 492 425 490 q 411 493 417 493 q 399 484 404 493 q 381 440 394 475 q 360 390 367 407 q 344 350 353 372 q 325 299 336 328 q 288 239 303 240 q 274 242 278 238 q 268 264 271 247 q 257 347 268 267 q 243 456 246 428 m 79 506 l 75 540 l 167 538 q 264 526 258 532 l 294 328 q 319 381 300 328 q 353 464 344 447 q 362 491 354 467 q 376 526 369 515 q 394 538 383 538 q 404 535 399 538 q 451 521 408 533 q 533 496 493 508 q 576 479 572 483 q 579 474 579 476 q 443 240 579 458 q 340 72 378 129 l 313 31 l 254 31 q 183 39 194 31 q 146 176 169 53 q 114 330 144 185 q 79 506 83 475 z "},"w":{"ha":839,"x_min":76,"x_max":764,"o":"m 172 457 q 128 467 133 467 q 125 463 125 467 q 139 422 125 450 q 181 324 147 406 q 267 129 226 217 l 278 101 l 333 149 q 397 190 381 190 q 439 156 411 190 q 464 126 444 150 q 492 92 483 101 l 519 58 l 560 93 q 631 159 618 143 q 654 210 644 175 q 725 439 681 307 l 732 458 l 653 464 q 607 465 636 465 q 568 463 574 465 q 524 292 561 456 q 512 244 515 251 q 499 238 508 238 q 447 292 486 238 q 403 344 413 344 q 372 333 394 344 q 321 272 349 321 q 285 224 296 224 q 269 332 271 224 l 267 438 l 240 442 q 172 457 206 449 m 90 507 q 182 489 111 507 q 267 471 238 476 l 296 465 l 296 307 l 311 326 q 359 361 324 342 q 410 381 394 381 q 454 338 424 381 q 488 297 485 297 q 525 447 494 303 q 542 496 536 490 q 575 499 547 499 q 690 493 622 499 q 763 482 757 488 q 764 478 764 479 q 719 305 764 450 q 661 140 675 160 q 588 72 647 121 q 518 22 528 22 q 450 88 507 22 q 393 151 396 151 q 346 115 390 151 q 290 68 301 79 q 274 57 279 57 q 247 90 263 57 q 175 251 231 122 q 126 365 156 296 q 94 439 96 435 q 76 494 76 478 q 90 507 76 507 z "},"x":{"ha":710,"x_min":75,"x_max":636,"o":"m 589 403 q 530 444 589 407 q 465 481 471 481 q 426 406 464 481 l 388 331 l 353 331 q 314 338 318 331 q 303 405 313 339 q 293 472 294 471 l 292 472 q 213 456 279 472 q 118 429 118 433 q 122 422 118 426 q 132 409 124 421 q 154 376 140 397 q 181 339 168 356 q 226 260 226 272 q 224 249 226 253 q 144 149 207 221 q 138 132 138 142 q 157 117 138 117 q 186 106 167 117 q 242 81 203 97 q 272 71 267 71 q 291 83 282 71 q 319 132 300 94 q 354 174 342 174 q 383 113 368 174 q 400 53 399 54 l 401 53 q 439 64 408 53 q 478 81 469 75 l 489 85 q 513 95 499 89 q 540 107 526 101 q 564 117 554 113 q 574 124 574 122 q 506 188 574 125 q 439 260 439 249 q 469 297 439 272 q 517 339 478 304 q 574 386 556 374 q 589 403 589 396 m 444 513 q 458 524 453 524 q 542 475 464 524 q 628 418 619 426 q 635 404 636 410 q 618 383 633 399 q 539 311 615 381 q 482 258 482 264 q 551 190 482 253 q 624 108 624 124 q 613 97 624 101 q 389 15 394 15 q 364 53 375 15 q 353 103 353 92 q 350 114 353 114 q 321 71 343 114 q 303 40 310 49 q 285 32 296 32 q 238 47 272 32 q 142 88 219 56 q 83 119 83 114 q 135 192 83 125 q 188 261 188 258 q 131 350 188 268 q 75 444 75 428 q 171 479 75 456 q 292 504 267 503 l 303 504 q 318 501 314 504 q 325 485 322 497 q 335 415 328 476 q 341 375 338 383 q 356 367 344 367 q 403 433 372 368 q 444 513 439 506 z "},"y":{"ha":732,"x_min":74,"x_max":657,"o":"m 258 531 q 183 536 222 531 l 147 540 l 136 444 l 124 349 l 169 303 q 214 246 204 267 q 235 157 224 225 q 236 143 236 151 q 224 126 236 126 q 167 149 207 126 q 113 172 117 172 l 107 104 l 101 38 l 211 38 q 308 40 289 38 q 339 54 326 43 q 431 133 340 56 q 503 206 488 183 q 546 303 518 229 q 613 475 583 404 q 619 499 621 494 q 607 506 618 503 q 503 519 586 511 q 400 528 419 528 l 397 528 l 400 478 q 406 371 403 428 q 410 300 410 314 q 367 282 410 290 q 299 274 325 274 l 278 274 l 282 329 q 292 458 285 367 l 297 531 l 258 531 m 119 565 q 164 571 121 571 q 272 565 214 571 q 331 550 329 558 l 331 538 q 322 419 331 511 q 317 329 317 369 q 318 313 317 314 q 351 313 322 308 q 379 328 378 322 q 378 344 379 338 q 363 540 363 436 q 364 560 363 558 q 378 561 365 561 q 527 549 419 561 q 647 531 635 536 q 657 517 657 525 q 600 351 657 499 q 533 188 546 210 q 450 106 519 167 q 424 83 440 97 q 401 63 408 68 q 383 47 394 57 q 367 34 372 38 q 353 24 363 31 q 340 16 344 18 q 327 11 335 14 q 313 8 319 8 q 299 6 307 7 q 281 6 290 6 q 201 8 271 6 l 76 13 l 74 76 l 74 107 q 76 179 74 149 q 97 215 81 215 q 149 194 108 215 q 192 175 190 175 q 194 185 194 179 q 190 208 193 192 q 136 288 185 239 q 89 350 89 333 q 90 361 89 357 q 104 463 92 369 q 119 565 117 557 z "},"z":{"ha":583,"x_min":69,"x_max":513,"o":"m 451 494 q 450 499 451 497 q 309 512 449 500 q 161 524 169 524 q 147 515 151 524 q 138 476 143 506 q 129 435 136 472 q 119 385 122 399 q 115 363 117 374 q 111 346 113 353 l 111 339 q 170 351 113 339 q 240 363 228 363 l 244 363 q 253 351 253 357 q 190 226 253 340 q 146 144 175 199 l 129 113 l 242 108 q 418 99 365 103 l 481 92 l 481 238 l 443 213 q 369 176 390 176 q 310 213 350 176 l 285 235 l 333 299 q 388 367 379 358 q 428 431 406 385 q 451 494 451 478 m 119 551 q 146 558 122 558 q 182 557 167 558 q 490 524 481 533 q 492 518 492 522 q 473 447 492 499 q 442 381 454 394 q 377 299 417 353 q 338 239 338 244 q 356 219 338 232 q 374 213 367 213 q 406 229 382 213 q 443 251 435 251 q 463 267 450 251 q 493 279 475 282 l 513 276 l 513 63 l 488 64 q 451 65 482 64 q 369 68 421 67 q 271 71 317 69 q 88 82 103 75 q 79 93 79 86 q 99 133 79 100 q 199 319 199 311 q 173 317 199 321 q 117 308 147 313 q 78 304 86 304 l 74 304 q 89 410 69 308 q 119 551 108 511 z "}," ":{"ha":347,"x_min":0,"x_max":0,"o":""}}}
